wght1000.ufo
<glyph name="zero" format="2">
	<unicode hex="0030"/>
	<advance width="1178"/>
	<outline>
		<contour>
			<point x="67.9119059245" y="751.6140136719" type="qcurve" smooth="yes"/>
			<point x="129.4445597331" y="1093.7174072266"/>
			<point x="447.6729125977" y="1521.1228027344"/>
			<point x="718.8814697266" y="1520" type="qcurve" smooth="yes"/>
			<point x="906.2539672852" y="1518.8771972656"/>
			<point x="1151.9585367838" y="1083.3471679688"/>
			<point x="1095.9745890299" y="748.3859863281" type="qcurve" smooth="yes"/>
			<point x="1036.1261393229" y="387.2825927734"/>
			<point x="717.1983032227" y="-32.2456054688"/>
			<point x="443.0218505859" y="-30" type="qcurve" smooth="yes"/>
			<point x="255.1566162109" y="-27.7543945312"/>
			<point x="7.4893595377" y="413.3657836914"/>
		</contour>
		<contour>
			<point x="261.2504882812" y="794.9122314453" type="qcurve" smooth="yes"/>
			<point x="199.8834228516" y="467.9122314453"/>
			<point x="296.2115478516" y="83.8719482422"/>
			<point x="444.2115478516" y="82.8719482422" type="qcurve" smooth="yes"/>
			<point x="612.7115478516" y="80.8719482422"/>
			<point x="851.5213623047" y="440.6491699219"/>
			<point x="909.6352539062" y="739.6491699219" type="qcurve" smooth="yes"/>
			<point x="963.8757324219" y="1019.6491699219"/>
			<point x="866.3413085938" y="1403.482421875"/>
			<point x="717.8413085938" y="1404.482421875" type="qcurve" smooth="yes"/>
			<point x="556.3413085938" y="1405.482421875"/>
			<point x="315.6175537109" y="1081.9122314453"/>
		</contour>
	</outline>
</glyph>
<glyph name="one" format="2">
	<unicode hex="0031"/>
	<advance width="787"/>
	<outline>
		<contour>
			<point x="278.4572753906" y="44" type="line"/>
			<point x="300.4572753906" y="106"/>
			<point x="333.4572753906" y="215"/>
			<point x="354.4572753906" y="321" type="qcurve" smooth="yes"/>
			<point x="488.4572753906" y="985" type="line"/>
			<point x="524.2578125" y="1270.4203491211" type="line"/>
			<point x="46.9284667969" y="995.3530273438" type="line"/>
			<point x="2.7895507812" y="1134.9217529297" type="line"/>
			<point x="551.3419799805" y="1525" type="line"/>
			<point x="718.8225708008" y="1428.2281494141" type="line"/>
			<point x="690.227722168" y="1386.2662353516"/>
			<point x="667.5447387695" y="1271.8114013672"/>
			<point x="664.5701293945" y="1260.9637451172" type="qcurve" smooth="yes"/>
			<point x="554.3419799805" y="719" type="line"/>
			<point x="465.3419799805" y="150" type="line"/>
			<point x="424.7478027344" y="-34" type="line"/>
		</contour>
	</outline>
</glyph>
<glyph name="two" format="2">
	<unicode hex="0032"/>
	<advance width="1039"/>
	<outline>
		<contour>
			<point x="-100.1019287109" y="6" type="qcurve"/>
			<point x="-153.1519775391" y="93.4548339844" type="line"/>
			<point x="12.9180908203" y="209.33203125" type="line" smooth="yes"/>
			<point x="381.2779541016" y="440.6984863281"/>
			<point x="934.5061035156" y="891.873046875"/>
			<point x="922.0122070312" y="1093.076171875" type="qcurve" smooth="yes"/>
			<point x="915.2038574219" y="1200.8619384766"/>
			<point x="745.6209716797" y="1309.3470458984"/>
			<point x="604.2866210938" y="1309.3470458984" type="qcurve" smooth="yes"/>
			<point x="467.9990234375" y="1309.3470458984"/>
			<point x="237.1541748047" y="1248.8491210938"/>
			<point x="128.5726318359" y="1186.380859375" type="qcurve"/>
			<point x="87.9251708984" y="1287.7976074219" type="line"/>
			<point x="185.918762207" y="1384.9458007812"/>
			<point x="443.2734985352" y="1520"/>
			<point x="631.1080322266" y="1520" type="qcurve" smooth="yes"/>
			<point x="833.1340942383" y="1520"/>
			<point x="1060.5050048828" y="1315"/>
			<point x="1068.9260253906" y="1161" type="qcurve" smooth="yes"/>
			<point x="1082.3996582031" y="826.6861572266"/>
			<point x="422.8112792969" y="309.0563964844"/>
			<point x="174.0189819336" y="106.9771728516" type="qcurve"/>
			<point x="174.9268188477" y="104.5079345703" type="line"/>
			<point x="191.9487915039" y="105.9771728516"/>
			<point x="233.2776489258" y="107.5385742188"/>
			<point x="252.4530639648" y="107.5079345703" type="qcurve"/>
			<point x="404.3511962891" y="72.8330688477"/>
			<point x="578.2292480469" y="40.2504882812"/>
			<point x="739.4508056641" y="23.0354614258" type="qcurve"/>
			<point x="851.5446777344" y="226.5197143555" type="line"/>
			<point x="938.6705322266" y="200.5192871094" type="line"/>
			<point x="857.8616943359" y="-30" type="line"/>
			<point x="743.08984375" y="-11.5367431641"/>
			<point x="506.1608886719" y="67.5740966797"/>
			<point x="405.6872558594" y="69" type="qcurve" smooth="yes"/>
			<point x="303.1610107422" y="69"/>
			<point x="-18.9440917969" y="33"/>
		</contour>
	</outline>
</glyph>
<glyph name="three" format="2">
	<unicode hex="0033"/>
	<advance width="1154"/>
	<outline>
		<contour>
			<point x="-70" y="219.7224121094" type="qcurve"/>
			<point x="-70" y="284.9625244141"/>
			<point x="10.7586669922" y="367.3618164062"/>
			<point x="84.2706298828" y="383.8004150391" type="qcurve"/>
			<point x="131.2004394531" y="382.8004150391" type="line"/>
			<point x="124.0776367188" y="357.8004150391"/>
			<point x="120.6390380859" y="322.8004150391"/>
			<point x="120.6390380859" y="292.8004150391" type="qcurve" smooth="yes"/>
			<point x="121.2004394531" y="188.2390136719"/>
			<point x="281.6953125" y="82.2390136719"/>
			<point x="432.0395507812" y="82.2390136719" type="qcurve" smooth="yes"/>
			<point x="644.3621826172" y="82.2390136719"/>
			<point x="928.3675537109" y="281.2821044922"/>
			<point x="927.8061523438" y="465.3459472656" type="qcurve" smooth="yes"/>
			<point x="927.8061523438" y="592.1312255859"/>
			<point x="731.4417724609" y="745.1475830078"/>
			<point x="500.3597412109" y="765.9545898438" type="qcurve" smooth="yes"/>
			<point x="411.0753173828" y="774.0811767578" type="line"/>
			<point x="413.4504394531" y="871.3074951172" type="line"/>
			<point x="472.5556640625" y="875.3074951172" type="line" smooth="yes"/>
			<point x="685.1646728516" y="889.4302978516"/>
			<point x="931.1922607422" y="1028.9971923828"/>
			<point x="931.7536621094" y="1157.4615478516" type="qcurve" smooth="yes"/>
			<point x="931.1922607422" y="1242.4068603516"/>
			<point x="806.2022705078" y="1327.5197753906"/>
			<point x="678.0230712891" y="1327.5197753906" type="qcurve" smooth="yes"/>
			<point x="516.1514892578" y="1327.5197753906"/>
			<point x="310.0417480469" y="1225.8225708008"/>
			<point x="261.0509033203" y="1199.7559814453" type="qcurve"/>
			<point x="213.2980957031" y="1308" type="line"/>
			<point x="258.6583251953" y="1370.9227905273"/>
			<point x="516.5286865234" y="1523.4098510742"/>
			<point x="676.3696289062" y="1523.1228027344" type="qcurve" smooth="yes"/>
			<point x="859.992980957" y="1522.8357543945"/>
			<point x="1056.0280151367" y="1360.4385986328"/>
			<point x="1056.0280151367" y="1222" type="qcurve" smooth="yes"/>
			<point x="1056.0280151367" y="1059.5614013672"/>
			<point x="890.6002197266" y="866.6842041016"/>
			<point x="748.1915893555" y="837.5614013672" type="qcurve"/>
			<point x="746.6301879883" y="831.5614013672" type="line"/>
			<point x="865.3483276367" y="817.6842041016"/>
			<point x="1047.4664916992" y="653.6842041016"/>
			<point x="1047.4664916992" y="497.6842041016" type="qcurve" smooth="yes"/>
			<point x="1049.1506958008" y="265.6842041016"/>
			<point x="668.1154785156" y="-31"/>
			<point x="325.9614257812" y="-31" type="qcurve" smooth="yes"/>
			<point x="124.8521118164" y="-31"/>
			<point x="-70" y="118.4865722656"/>
		</contour>
	</outline>
</glyph>
<glyph name="four" format="2">
	<unicode hex="0034"/>
	<advance width="1353"/>
	<outline>
		<contour>
			<point x="4" y="410.5701904297" type="line"/>
			<point x="4" y="540" type="line"/>
			<point x="1182.5430908203" y="1536" type="line"/>
			<point x="1146.7883300781" y="1434" type="line"/>
			<point x="1171.7883300781" y="1389" type="line"/>
			<point x="1013.7883300781" y="520" type="line"/>
			<point x="1004.7883300781" y="487" type="line"/>
			<point x="940.7883300781" y="176" type="line"/>
			<point x="940.7883300781" y="18" type="line"/>
			<point x="797.5430908203" y="-34" type="line"/>
			<point x="767.5430908203" y="31" type="line"/>
			<point x="861.5430908203" y="483" type="line"/>
			<point x="871.5430908203" y="520" type="line"/>
			<point x="998.0721435547" y="1223.0600585938" type="line"/>
			<point x="226.59375" y="557.0877685547" type="line"/>
			<point x="230.59375" y="547.0877685547" type="line"/>
			<point x="947.4727172852" y="547.4675292969" type="line"/>
			<point x="1291.8298339844" y="547.4675292969" type="line"/>
			<point x="1267.9313964844" y="409.5701904297" type="line"/>
			<point x="944.5742797852" y="396.8360595703" type="line"/>
		</contour>
	</outline>
</glyph>
<glyph name="five" format="2">
	<unicode hex="0035"/>
	<advance width="1122"/>
	<outline>
		<contour>
			<point x="-93" y="206" type="qcurve" smooth="yes"/>
			<point x="-93" y="283.1389160156"/>
			<point x="10.0677490234" y="377.4929199219"/>
			<point x="80" y="382.6826171875" type="qcurve"/>
			<point x="97.3413085938" y="377.6826171875" type="line"/>
			<point x="97.3413085938" y="293.8723144531" type="line" smooth="yes"/>
			<point x="97.3413085938" y="203.9349365234"/>
			<point x="239.8092041016" y="88.6822509766"/>
			<point x="395.8732910156" y="88.6822509766" type="qcurve" smooth="yes"/>
			<point x="627.7669677734" y="88.6822509766"/>
			<point x="879.4903564453" y="299.9097900391"/>
			<point x="873.3149414062" y="548" type="qcurve" smooth="yes"/>
			<point x="867.7009277344" y="751.0532226562"/>
			<point x="569.3918457031" y="837.1104736328"/>
			<point x="358.2655029297" y="780.8824462891" type="qcurve" smooth="yes"/>
			<point x="234.2305908203" y="747.9000244141" type="line"/>
			<point x="179.8770751953" y="832" type="line"/>
			<point x="359.8770751953" y="1467" type="line"/>
			<point x="392.4384765625" y="1500" type="line"/>
			<point x="1068.8215332031" y="1500" type="line"/>
			<point x="1055.3115844727" y="1450.0056762695" type="line"/>
			<point x="516.9996948242" y="1450.0056762695" type="line"/>
			<point x="505.9996948242" y="1439.0056762695" type="line"/>
			<point x="432.6204833984" y="1167.340637207"/>
			<point x="366.1044921875" y="945.473815918"/>
			<point x="314.2176513672" y="876.4171142578" type="qcurve"/>
			<point x="637.4031982422" y="977.8596191406" type="line"/>
			<point x="825.7256469727" y="984.8420410156"/>
			<point x="1022.2993164062" y="763.0526123047"/>
			<point x="1029.5975341797" y="566" type="qcurve" smooth="yes"/>
			<point x="1039.1413574219" y="278.9123535156"/>
			<point x="616.0989990234" y="-31"/>
			<point x="285.0360717773" y="-31" type="qcurve" smooth="yes"/>
			<point x="114.6344604492" y="-31"/>
			<point x="-93" y="103"/>
		</contour>
	</outline>
</glyph>
<glyph name="six" format="2">
	<unicode hex="0036"/>
	<advance width="1070"/>
	<outline>
		<contour>
			<point x="24.3157958984" y="470.4385986328" type="qcurve" smooth="yes"/>
			<point x="27.017578125" y="874"/>
			<point x="656.0603637695" y="1482.5620727539"/>
			<point x="1119.6689453125" y="1551" type="qcurve"/>
			<point x="1147.0183105469" y="1441.8240966797" type="line"/>
			<point x="764.0240478516" y="1343.3690185547"/>
			<point x="165.0718994141" y="841.15234375"/>
			<point x="166.8664550781" y="416.9176025391" type="qcurve" smooth="yes"/>
			<point x="167.9830322266" y="264.2270507812"/>
			<point x="304.4171142578" y="76.2055664062"/>
			<point x="487.5347290039" y="75.6441650391" type="qcurve" smooth="yes"/>
			<point x="647.4939575195" y="74.5213623047"/>
			<point x="857.5352783203" y="289.6805419922"/>
			<point x="850.8033447266" y="514.4110107422" type="qcurve" smooth="yes"/>
			<point x="844.9461669922" y="624.1010742188"/>
			<point x="736.7509765625" y="754.5911865234"/>
			<point x="630.5054931641" y="755.1525878906" type="qcurve" smooth="yes"/>
			<point x="578.4880371094" y="755.7139892578"/>
			<point x="471.3154296875" y="726.0366821289"/>
			<point x="414.5607299805" y="686.7424926758" type="qcurve"/>
			<point x="407.831237793" y="770.817199707" type="line"/>
			<point x="438.4605712891" y="815.0822143555"/>
			<point x="545.2228393555" y="880.5181884766"/>
			<point x="622.3116455078" y="879.9567871094" type="qcurve" smooth="yes"/>
			<point x="773.6329956055" y="878.833984375"/>
			<point x="961.5802001953" y="685.9918212891"/>
			<point x="964.5626220703" y="533.8338623047" type="qcurve" smooth="yes"/>
			<point x="965.1064453125" y="255.81640625"/>
			<point x="653.0535888672" y="-31.5614013672"/>
			<point x="419.720703125" y="-31" type="qcurve" smooth="yes"/>
			<point x="269.4392700195" y="-30.4385986328"/>
			<point x="23.3684082031" y="244.9298095703"/>
		</contour>
	</outline>
</glyph>
<glyph name="seven" format="2">
	<unicode hex="0037"/>
	<advance width="976"/>
	<outline>
		<contour>
			<point x="-21.1904296875" y="1280.5167236328" type="line"/>
			<point x="65.8586425781" y="1500" type="line"/>
			<point x="1080.2540283203" y="1500" type="line"/>
			<point x="1107.4069824219" y="1450.4816894531" type="line"/>
			<point x="860.0606079102" y="1056.1343994141"/>
			<point x="406.3245239258" y="272.6348876953"/>
			<point x="246.6482543945" y="4.7876586914" type="qcurve"/>
			<point x="106.9716186523" y="-12.7503051758" type="line"/>
			<point x="100.5777587891" y="-6.4807128906" type="line"/>
			<point x="272.6661376953" y="357.9813232422"/>
			<point x="788.1079101562" y="1132.9187011719"/>
			<point x="968.0981445312" y="1465.5266723633" type="qcurve"/>
			<point x="955.0341796875" y="1484.5266723633" type="line"/>
			<point x="213.2303466797" y="1484.6532592773" type="line"/>
			<point x="80.8126220703" y="1280.7885742188" type="line"/>
		</contour>
	</outline>
</glyph>
<glyph name="eight" format="2">
	<unicode hex="0038"/>
	<advance width="1136"/>
	<outline>
		<contour>
			<point x="617.4998779297" y="872.291015625" type="qcurve"/>
			<point x="722.8424072266" y="816.7620849609" type="line"/>
			<point x="558.4684448242" y="747.2670898438"/>
			<point x="259.3277587891" y="467.6126708984"/>
			<point x="264.9417724609" y="323.0584716797" type="qcurve" smooth="yes"/>
			<point x="268.8715820312" y="233.8713378906"/>
			<point x="396.6748657227" y="95.0200195312"/>
			<point x="545.5315551758" y="95.5814208984" type="qcurve" smooth="yes"/>
			<point x="713.6356201172" y="96.7042236328"/>
			<point x="973.5202026367" y="303.5189208984"/>
			<point x="967.9061889648" y="455.872253418" type="qcurve" smooth="yes"/>
			<point x="962.292175293" y="607.5024414062"/>
			<point x="668.10546875" y="811.8665161133"/>
			<point x="581.1529541016" y="862.8732299805" type="qcurve" smooth="yes"/>
			<point x="476.3993530273" y="925.8460083008"/>
			<point x="263.2783203125" y="1118.0102539062"/>
			<point x="252.0502929688" y="1222.8165893555" type="qcurve" smooth="yes"/>
			<point x="242.5064697266" y="1293.005859375"/>
			<point x="437.9924316406" y="1522.36328125"/>
			<point x="724.2752685547" y="1523.4860839844" type="qcurve" smooth="yes"/>
			<point x="929.1360473633" y="1524.6088867188"/>
			<point x="1088.6857910156" y="1365.0423583984"/>
			<point x="1091.8391723633" y="1284.8270263672" type="qcurve" smooth="yes"/>
			<point x="1095.0993041992" y="1142.9854125977"/>
			<point x="836.6248168945" y="927.6972045898"/>
			<point x="584.3218383789" y="830.287109375" type="qcurve"/>
			<point x="464.9064331055" y="890.0819091797" type="line"/>
			<point x="632.4009399414" y="966.6740722656"/>
			<point x="832.9016723633" y="1193.8150634766"/>
			<point x="818.9905395508" y="1288.5145263672" type="qcurve" smooth="yes"/>
			<point x="806.2022094727" y="1325.693359375"/>
			<point x="754.9124755859" y="1380.904296875"/>
			<point x="674.526550293" y="1380.904296875" type="qcurve" smooth="yes"/>
			<point x="494.9697265625" y="1380.3428955078"/>
			<point x="330.5228271484" y="1236.9831542969"/>
			<point x="333.8912353516" y="1142.3303833008" type="qcurve" smooth="yes"/>
			<point x="337.8210449219" y="1064.1728515625"/>
			<point x="569.4128417969" y="894.0467529297"/>
			<point x="715.9625244141" y="811.3364257812" type="qcurve" smooth="yes"/>
			<point x="900.4353637695" y="702.5473022461"/>
			<point x="1045.7053833008" y="503.6626586914"/>
			<point x="1053.5650024414" y="423.9951782227" type="qcurve" smooth="yes"/>
			<point x="1065.3544311523" y="287.318359375"/>
			<point x="736.1444091797" y="-29.8771972656"/>
			<point x="437.2930908203" y="-31" type="qcurve" smooth="yes"/>
			<point x="245.3961791992" y="-31.5614013672"/>
			<point x="-20.7017822266" y="153.6828613281"/>
			<point x="-30.2456054688" y="312.0499267578" type="qcurve" smooth="yes"/>
			<point x="-40.9122314453" y="496.6900634766"/>
			<point x="342.7286376953" y="786.9010620117"/>
		</contour>
	</outline>
</glyph>
<glyph name="nine" format="2">
	<unicode hex="0039"/>
	<advance width="1062"/>
	<outline>
		<contour>
			<point x="-81.8607177734" y="-59.4385986328" type="qcurve"/>
			<point x="-109.2100830078" y="49.7373046875" type="line"/>
			<point x="268.7315673828" y="148.1923828125"/>
			<point x="861.9957275391" y="654.9661865234"/>
			<point x="861.3239746094" y="1072.7449951172" type="qcurve" smooth="yes"/>
			<point x="860.2073974609" y="1231.693359375"/>
			<point x="715.0755004883" y="1420.4193115234"/>
			<point x="559.7916870117" y="1420.9807128906" type="qcurve" smooth="yes"/>
			<point x="397.3007202148" y="1422.103515625"/>
			<point x="187.5506591797" y="1200.6445922852"/>
			<point x="181.9522705078" y="978.4162597656" type="qcurve" smooth="yes"/>
			<point x="181.6442871094" y="868.7261962891"/>
			<point x="277.7924194336" y="738.2360839844"/>
			<point x="402.8115234375" y="737.6746826172" type="qcurve" smooth="yes"/>
			<point x="454.267578125" y="737.11328125"/>
			<point x="562.5079345703" y="767.043762207"/>
			<point x="619.7689819336" y="806.2113647461" type="qcurve"/>
			<point x="624.0933227539" y="722.2632446289" type="line"/>
			<point x="593.4639892578" y="677.9982299805"/>
			<point x="486.7017211914" y="612.5622558594"/>
			<point x="409.6129150391" y="613.1236572266" type="qcurve" smooth="yes"/>
			<point x="257.7301635742" y="614.2464599609"/>
			<point x="71.7368164062" y="803.6707763672"/>
			<point x="68.1929931641" y="955.8287353516" type="qcurve" smooth="yes"/>
			<point x="68.2105712891" y="1233.8461914062"/>
			<point x="380.2634277344" y="1523.1228027344"/>
			<point x="613.0349121094" y="1522.5614013672" type="qcurve" smooth="yes"/>
			<point x="752.4085693359" y="1522"/>
			<point x="1009.9486083984" y="1237.7111206055"/>
			<point x="1009.0012207031" y="1021.1228027344" type="qcurve" smooth="yes"/>
			<point x="1005.7380371094" y="617.5614013672"/>
			<point x="363.9517211914" y="8.9993286133"/>
		</contour>
	</outline>
</glyph>
<glyph name="B" format="2">
	<unicode hex="0042"/>
	<advance width="1184"/>
	<outline>
		<contour>
			<point x="-68.2924194336" y="0" type="line"/>
			<point x="-51.143371582" y="99.9951171875" type="line"/>
			<point x="138.1437988281" y="119.9951171875" type="line"/>
			<point x="278.9947509766" y="806" type="line"/>
			<point x="379.845703125" y="1364.0048828125" type="line"/>
			<point x="161.6018676758" y="1387.0048828125" type="line"/>
			<point x="168.4898071289" y="1500" type="line"/>
			<point x="629.7784423828" y="1500" type="line" smooth="yes"/>
			<point x="833.1951904297" y="1500"/>
			<point x="1039.5452880859" y="1332"/>
			<point x="1037.8253173828" y="1163" type="qcurve" smooth="yes"/>
			<point x="1035.9260253906" y="1016"/>
			<point x="867.3414306641" y="854"/>
			<point x="755.2438964844" y="830" type="qcurve"/>
			<point x="755.0981445312" y="823" type="line"/>
			<point x="895.7275390625" y="789"/>
			<point x="1037.6358642578" y="575"/>
			<point x="1019.4741210938" y="413" type="qcurve" smooth="yes"/>
			<point x="997.3123779297" y="226"/>
			<point x="724.0717773438" y="0"/>
			<point x="488.392578125" y="0" type="qcurve" smooth="yes"/>
		</contour>
		<contour>
			<point x="301.6761474609" y="126.4821777344" type="line"/>
			<point x="348.3078613281" y="107.177734375" type="line"/>
			<point x="443.33203125" y="107.177734375" type="line" smooth="yes"/>
			<point x="629.5970458984" y="107.177734375"/>
			<point x="836.0693359375" y="263.05078125"/>
			<point x="856.5065917969" y="412.05078125" type="qcurve" smooth="yes"/>
			<point x="876.9438476562" y="559.05078125"/>
			<point x="737.5883789062" y="739.0231933594"/>
			<point x="560.0014648438" y="739.0231933594" type="qcurve" smooth="yes"/>
			<point x="418.5260009766" y="739.0231933594" type="line"/>
			<point x="416.5260009766" y="724.4270019531" type="line"/>
		</contour>
		<contour>
			<point x="444.5977783203" y="877.9577636719" type="line"/>
			<point x="439.3990478516" y="853.9641113281" type="line"/>
			<point x="557.4516601562" y="853.9641113281" type="line" smooth="yes"/>
			<point x="702.330078125" y="853.9641113281"/>
			<point x="885.8051757812" y="987.7568359375"/>
			<point x="896.2525634766" y="1125.7568359375" type="qcurve" smooth="yes"/>
			<point x="906.1270751953" y="1253.7568359375"/>
			<point x="788.3951416016" y="1386.7292480469"/>
			<point x="643.9539794922" y="1386.7292480469" type="qcurve" smooth="yes"/>
			<point x="572.0958251953" y="1386.7292480469" type="line"/>
			<point x="535.5069580078" y="1368.9279785156" type="line"/>
		</contour>
	</outline>
	<anchor name="bottom" x="630" y="0"/>
	<anchor name="top" x="630" y="1500"/>
</glyph>
<glyph name="C" format="2">
	<unicode hex="0043"/>
	<advance width="1236"/>
	<outline>
		<contour>
			<point x="83.0338136759" y="786" type="qcurve" smooth="yes"/>
			<point x="144.0338136759" y="1159"/>
			<point x="710.0017091837" y="1560.3711547852"/>
			<point x="1013.1425783243" y="1520.8657836914" type="qcurve" smooth="yes"/>
			<point x="1047.8579103556" y="1515.9024047852"/>
			<point x="1212.0604948517" y="1452.1619262695"/>
			<point x="1217.9545378205" y="1433.3237915039" type="qcurve"/>
			<point x="1230.5006803986" y="1418.7815551758" type="line"/>
			<point x="1249.787545633" y="1401.0205688477" type="line"/>
			<point x="1194.0873503205" y="1011.1093139648" type="line"/>
			<point x="1089.4412321564" y="1011.1093139648" type="line"/>
			<point x="1098.3555387971" y="1244.6753540039" type="line"/>
			<point x="1104.2232145783" y="1311.7322387695"/>
			<point x="1006.1253141877" y="1378.1528930664"/>
			<point x="964.3536467072" y="1383.8763427734" type="qcurve" smooth="yes"/>
			<point x="685.8407682892" y="1426.4526977539"/>
			<point x="320.0406496134" y="1107"/>
			<point x="271.0406496134" y="759" type="qcurve" smooth="yes"/>
			<point x="229.4937746134" y="466"/>
			<point x="403.5111784455" y="148.3931274414"/>
			<point x="600.7103971955" y="133.5913696289" type="qcurve" smooth="yes"/>
			<point x="802.5104460236" y="117.5742797852"/>
			<point x="1012.6842043009" y="237.8732910156"/>
			<point x="1086.5972902384" y="346.5561523438" type="qcurve"/>
			<point x="1131.4923097697" y="322.5561523438" type="line"/>
			<point x="1166.0948488322" y="262" type="line"/>
			<point x="1079.1411833283" y="103.7697753906"/>
			<point x="866.7838835236" y="-34.5697631836"/>
			<point x="665.5419923868" y="-24.5990600586" type="qcurve" smooth="yes"/>
			<point x="377.5202638712" y="-15.5131225586"/>
			<point x="19.8341066447" y="408"/>
		</contour>
	</outline>
	<anchor name="bottom" x="596" y="0"/>
	<anchor name="top" x="906" y="1500"/>
</glyph>
<glyph name="D" format="2">
	<unicode hex="0044"/>
	<advance width="1413"/>
	<outline>
		<contour>
			<point x="-63.5825805664" y="0" type="line"/>
			<point x="-46.4335327148" y="99.9951171875" type="line"/>
			<point x="143.1536865234" y="119.9951171875" type="line"/>
			<point x="283.7045898438" y="806" type="line"/>
			<point x="384.10546875" y="1364.0048828125" type="line"/>
			<point x="164.0747070312" y="1387.0048828125" type="line"/>
			<point x="169.9385375977" y="1500" type="line"/>
			<point x="834.3745117188" y="1500" type="line" smooth="yes"/>
			<point x="1054.3068847656" y="1500"/>
			<point x="1362.1708984375" y="1100.5249023438"/>
			<point x="1305.076171875" y="726" type="qcurve" smooth="yes"/>
			<point x="1252.5339355469" y="380.3425292969"/>
			<point x="819.8764648438" y="0"/>
			<point x="486.0986328125" y="0" type="qcurve" smooth="yes"/>
		</contour>
		<contour>
			<point x="304.8388671875" y="124.9113769531" type="line"/>
			<point x="340.5791015625" y="113.9113769531"/>
			<point x="454.0700683594" y="102.9113769531"/>
			<point x="516.6555175781" y="102.9113769531" type="qcurve" smooth="yes"/>
			<point x="789.2993164062" y="102.9113769531"/>
			<point x="1074.3422851562" y="432.3996582031"/>
			<point x="1137.11328125" y="770" type="qcurve" smooth="yes"/>
			<point x="1193.4423828125" y="1081.7060546875"/>
			<point x="1004.8522949219" y="1394.5981445312"/>
			<point x="746.9165039062" y="1394.5981445312" type="qcurve" smooth="yes"/>
			<point x="680.9885253906" y="1394.5981445312"/>
			<point x="586.5578613281" y="1387.5981445312"/>
			<point x="550.16015625" y="1378.5981445312" type="qcurve"/>
			<point x="427.1982421875" y="754" type="line"/>
		</contour>
	</outline>
	<anchor name="bottom" x="686" y="0"/>
	<anchor name="center" x="448" y="754"/>
	<anchor name="top" x="827" y="1500"/>
	<anchor name="liga" x="1431" y="0"/>
</glyph>
<glyph name="E" format="2">
	<unicode hex="0045"/>
	<advance width="1211"/>
	<outline>
		<contour>
			<point x="-63.9202270508" y="0" type="line"/>
			<point x="-47.0972900391" y="99.9951171875" type="line"/>
			<point x="138.9287719727" y="119.9951171875" type="line"/>
			<point x="279.7797241211" y="806" type="line"/>
			<point x="380.6306762695" y="1364.0048828125" type="line"/>
			<point x="161.9107055664" y="1387.0048828125" type="line"/>
			<point x="169.6008911133" y="1500" type="line"/>
			<point x="1186.1992797852" y="1500" type="line"/>
			<point x="1139.7047729492" y="1149.7280273438" type="line"/>
			<point x="1040.9614868164" y="1149.7280273438" type="line"/>
			<point x="1024.4684448242" y="1368.9279785156" type="line"/>
			<point x="583.3007202148" y="1368.9279785156" type="line"/>
			<point x="543.3007202148" y="1344.9279785156" type="line"/>
			<point x="432.034362793" y="783" type="line"/>
			<point x="320.9667358398" y="199.4758300781" type="line"/>
			<point x="370.9667358398" y="130.4758300781" type="line"/>
			<point x="855.8363647461" y="130.4758300781" type="line"/>
			<point x="961.2459106445" y="392.4931640625" type="line"/>
			<point x="1058.7778930664" y="392.4931640625" type="line"/>
			<point x="964.1992797852" y="0" type="line"/>
		</contour>
		<contour>
			<point x="172.4039916992" y="745.2895507812" type="line"/>
			<point x="192.3854370117" y="834.2622070312" type="line"/>
			<point x="820.8626098633" y="848.2622070312" type="line"/>
			<point x="880.0182495117" y="1004.4613037109" type="line"/>
			<point x="966.0432739258" y="1004.4613037109" type="line"/>
			<point x="879.9426879883" y="565.9495849609" type="line"/>
			<point x="793.8472290039" y="565.9495849609" type="line"/>
			<point x="796.1289672852" y="729.2895507812" type="line"/>
		</contour>
	</outline>
	<anchor name="bottom" x="518" y="0"/>
	<anchor name="ogonek" x="827" y="0"/>
	<anchor name="top" x="789" y="1500"/>
	<anchor name="tonos" x="81" y="1500"/>
</glyph>
<glyph name="I" format="2">
	<unicode hex="0049"/>
	<advance width="705"/>
	<outline>
		<contour>
			<point x="-62.471496582" y="0" type="line"/>
			<point x="-45.6485595703" y="99.9951171875" type="line"/>
			<point x="143.3125" y="119.9951171875" type="line"/>
			<point x="284.4895629883" y="806" type="line"/>
			<point x="385.1904907227" y="1364.0048828125" type="line"/>
			<point x="164.0116577148" y="1387.0048828125" type="line"/>
			<point x="171.049621582" y="1500" type="line"/>
			<point x="765.696472168" y="1500" type="line"/>
			<point x="745.3973999023" y="1387.0048828125" type="line"/>
			<point x="549.436340332" y="1364.0048828125" type="line"/>
			<point x="435.7354125977" y="790" type="line"/>
			<point x="307.5583496094" y="119.9951171875" type="line"/>
			<point x="515.7371826172" y="99.9951171875" type="line"/>
			<point x="508.9142456055" y="0" type="line"/>
		</contour>
	</outline>
	<anchor name="bottom" x="220" y="0"/>
	<anchor name="ogonek" x="356" y="0"/>
	<anchor name="top" x="503" y="1500"/>
	<anchor name="tonos" x="81" y="1500"/>
	<anchor name="yu_dash" x="365" y="795"/>
	<anchor name="liga" x="712" y="0"/>
</glyph>
<glyph name="K" format="2">
	<unicode hex="004B"/>
	<advance width="1237"/>
	<outline>
		<contour>
			<point x="-65.0313110352" y="0" type="line"/>
			<point x="-51.143371582" y="99.9951171875" type="line"/>
			<point x="138.1437988281" y="119.9951171875" type="line"/>
			<point x="278.9947509766" y="806" type="line"/>
			<point x="379.6956787109" y="1364.0048828125" type="line"/>
			<point x="161.4518432617" y="1387.0048828125" type="line"/>
			<point x="168.4898071289" y="1500" type="line"/>
			<point x="759.0447998047" y="1500" type="line"/>
			<point x="742.0068359375" y="1387.0048828125" type="line"/>
			<point x="550.1091308594" y="1364.0048828125" type="line"/>
			<point x="436.2581787109" y="790" type="line"/>
			<point x="309.0073242188" y="119.9951171875" type="line"/>
			<point x="511.042175293" y="99.9951171875" type="line"/>
			<point x="500.1542358398" y="0" type="line"/>
		</contour>
		<contour>
			<point x="497.1971435547" y="683.1628417969" type="line"/>
			<point x="531.0499267578" y="843.3103027344" type="line"/>
			<point x="1011.9775390625" y="1364.0048828125" type="line"/>
			<point x="861.6292114258" y="1387.0048828125" type="line"/>
			<point x="875.667175293" y="1500" type="line"/>
			<point x="1438.9979248047" y="1500" type="line"/>
			<point x="1424.9599609375" y="1387.0048828125" type="line"/>
			<point x="1229.3881835938" y="1364.0048828125" type="line"/>
		</contour>
		<contour>
			<point x="569.8065185547" y="857.5687255859" type="line"/>
			<point x="729.6433105469" y="968.4296875" type="line"/>
			<point x="1065.5405273438" y="119.9951171875" type="line"/>
			<point x="1241.3921508789" y="99.9951171875" type="line"/>
			<point x="1235.5042114258" y="0" type="line"/>
			<point x="696.0380859375" y="0" type="line"/>
			<point x="705.9260253906" y="99.9951171875" type="line"/>
			<point x="872.77734375" y="119.9951171875" type="line"/>
		</contour>
	</outline>
	<anchor name="bottom" x="607" y="0"/>
	<anchor name="top" x="896" y="1500"/>
	<anchor name="kai_tail" x="1201" y="100"/>
</glyph>
<glyph name="M" format="2">
	<unicode hex="004D"/>
	<advance width="1830"/>
	<outline>
		<contour>
			<point x="-89.099609375" y="0" type="line"/>
			<point x="-76.2116699219" y="99.9951171875" type="line"/>
			<point x="128.0971679688" y="134.9951171875" type="line"/>
			<point x="249.9481201172" y="754" type="line"/>
			<point x="365.6490478516" y="1361.0048828125" type="line"/>
			<point x="151.3185424805" y="1387.0048828125" type="line"/>
			<point x="163.3565063477" y="1500" type="line"/>
			<point x="552.4759521484" y="1500" type="line"/>
			<point x="688.5479736328" y="780.0969238281" type="line"/>
			<point x="765.0623779297" y="474.7758789062" type="line"/>
			<point x="780.4344482422" y="317.837890625" type="line"/>
			<point x="790.4344482422" y="317.837890625" type="line"/>
			<point x="870.4525146484" y="474.7758789062" type="line"/>
			<point x="1125.4090576172" y="893.9887695312" type="line"/>
			<point x="1485.3934326172" y="1500" type="line"/>
			<point x="1887.6708374023" y="1500" type="line"/>
			<point x="1869.0239868164" y="1387.0048828125" type="line"/>
			<point x="1665.6934814453" y="1364.0048828125" type="line"/>
			<point x="1544.9925537109" y="754" type="line"/>
			<point x="1424.1416015625" y="119.9951171875" type="line"/>
			<point x="1637.733215332" y="99.9951171875" type="line"/>
			<point x="1631.8452758789" y="0" type="line"/>
			<point x="1043.7856445312" y="0" type="line"/>
			<point x="1059.6735839844" y="99.9951171875" type="line"/>
			<point x="1264.8957519531" y="119.9951171875" type="line"/>
			<point x="1390.7467041016" y="751.2478027344" type="line"/>
			<point x="1463.7467041016" y="1138.2478027344" type="line"/>
			<point x="1495.6846923828" y="1288" type="line"/>
			<point x="1485.6846923828" y="1291" type="line"/>
			<point x="1413.2596435547" y="1139.8850097656" type="line"/>
			<point x="1150.4173583984" y="719.5905761719" type="line"/>
			<point x="721.6380615234" y="0" type="line"/>
			<point x="718.8621826172" y="0" type="line"/>
			<point x="572.9571533203" y="678.9174804688" type="line"/>
			<point x="474.0626220703" y="1140.0620117188" type="line"/>
			<point x="458.3985595703" y="1302" type="line"/>
			<point x="448.3985595703" y="1299" type="line"/>
			<point x="421.3985595703" y="1139" type="line"/>
			<point x="345.3985595703" y="754" type="line"/>
			<point x="227.5476074219" y="134.9951171875" type="line"/>
			<point x="418.4436645508" y="99.9951171875" type="line"/>
			<point x="399.2946166992" y="0" type="line"/>
		</contour>
	</outline>
	<anchor name="bottom" x="768" y="0"/>
	<anchor name="top" x="1048" y="1500"/>
</glyph>
<glyph name="O" format="2">
	<unicode hex="004F"/>
	<advance width="1561"/>
	<outline>
		<contour>
			<point x="104.9902055008" y="884" type="qcurve" smooth="yes"/>
			<point x="187.7511918289" y="1244"/>
			<point x="653.6006791336" y="1572.6438598633"/>
			<point x="939.159028743" y="1520.8657836914" type="qcurve" smooth="yes"/>
			<point x="1202.3868119461" y="1472.573059082"/>
			<point x="1521.0617387039" y="1019"/>
			<point x="1440.2919633133" y="649" type="qcurve" smooth="yes"/>
			<point x="1358.769990657" y="280"/>
			<point x="876.1252711594" y="-69.3681974086"/>
			<point x="593.6368729812" y="-19.5990600586" type="qcurve" smooth="yes"/>
			<point x="293.164227444" y="33.7264105131"/>
			<point x="23.2292191726" y="524"/>
		</contour>
		<contour>
			<point x="281.5150825886" y="842" type="qcurve" smooth="yes"/>
			<point x="215.6806099324" y="530.6976318359"/>
			<point x="376.3184883503" y="148.5149536133"/>
			<point x="609.7388985066" y="115.1875610352" type="qcurve" smooth="yes"/>
			<point x="862.4077217488" y="78.2461547852"/>
			<point x="1192.2732002644" y="410.6812744141"/>
			<point x="1253.0861275105" y="719" type="qcurve" smooth="yes"/>
			<point x="1320.4415352253" y="1059.8955078125"/>
			<point x="1098.9634468464" y="1365.563293457"/>
			<point x="886.8296577839" y="1390.6626586914" type="qcurve" smooth="yes"/>
			<point x="662.4385445027" y="1417.6333618164"/>
			<point x="345.5080025105" y="1148.9968261719"/>
		</contour>
	</outline>
	<anchor name="bottom" x="612" y="0"/>
	<anchor name="center" x="765" y="756"/>
	<anchor name="ogonek" x="844" y="0"/>
	<anchor name="top" x="906" y="1500"/>
	<anchor name="topright" x="1044" y="1500"/>
	<anchor name="tonos" x="230" y="1500"/>
	<anchor name="_yu_dash" x="174" y="795"/>
</glyph>
<glyph name="P" format="2">
	<unicode hex="0050"/>
	<advance width="1157"/>
	<outline>
		<contour>
			<point x="-65.357421875" y="0" type="line"/>
			<point x="-51.4694824219" y="99.9951171875" type="line"/>
			<point x="138.4438476562" y="119.9951171875" type="line"/>
			<point x="278.9947509766" y="806" type="line"/>
			<point x="379.3956298828" y="1364.0048828125" type="line"/>
			<point x="164.3868408203" y="1387.0048828125" type="line"/>
			<point x="172.0770263672" y="1500" type="line"/>
			<point x="894.1976318359" y="1500" type="line" smooth="yes"/>
			<point x="981.0891113281" y="1500"/>
			<point x="1146.1293945312" y="1286.5517578125"/>
			<point x="1122.7683105469" y="1065.30859375" type="qcurve" smooth="yes"/>
			<point x="1100.5065917969" y="850.2641601562"/>
			<point x="873.1341552734" y="582.6171875"/>
			<point x="690.5992431641" y="582.6171875" type="qcurve" smooth="yes"/>
			<point x="557.0021972656" y="582.6171875"/>
			<point x="365.0064697266" y="606.9051513672"/>
			<point x="322.0528564453" y="611.7165527344" type="qcurve"/>
			<point x="345.4884033203" y="729" type="line"/>
			<point x="408.0207519531" y="716"/>
			<point x="486.1563720703" y="707"/>
			<point x="559.3262939453" y="707" type="qcurve" smooth="yes"/>
			<point x="716.8586425781" y="707"/>
			<point x="920.0422363281" y="887.4946289062"/>
			<point x="943.0422363281" y="1058.4946289062" type="qcurve" smooth="yes"/>
			<point x="963.0422363281" y="1207.4946289062"/>
			<point x="844.8209228516" y="1373.8962402344"/>
			<point x="678.0375976562" y="1373.8962402344" type="qcurve" smooth="yes"/>
			<point x="566.1552734375" y="1373.8962402344" type="line"/>
			<point x="532.1689453125" y="1344.3963623047" type="line"/>
			<point x="425.4884033203" y="764" type="line"/>
			<point x="302.9375" y="119.9951171875" type="line"/>
			<point x="549.1640625" y="99.9951171875" type="line"/>
			<point x="533.2761230469" y="0" type="line"/>
		</contour>
	</outline>
	<anchor name="bottom" x="634" y="0"/>
	<anchor name="top" x="634" y="1500"/>
</glyph>
<glyph name="R" format="2">
	<unicode hex="0052"/>
	<advance width="1217"/>
	<outline>
		<contour>
			<point x="-74.8338623047" y="0" type="line"/>
			<point x="-57.6848144531" y="99.9951171875" type="line"/>
			<point x="131.602355957" y="119.9951171875" type="line"/>
			<point x="272.4533081055" y="806" type="line"/>
			<point x="373.1542358398" y="1364.0048828125" type="line"/>
			<point x="159.3456420898" y="1387.0048828125" type="line"/>
			<point x="165.2094726562" y="1500" type="line"/>
			<point x="745.6168823242" y="1500" type="line" smooth="yes"/>
			<point x="933.6520385742" y="1500"/>
			<point x="1104.0637817383" y="1281.6447753906"/>
			<point x="1084.6470336914" y="1117.9047851562" type="qcurve" smooth="yes"/>
			<point x="1063.6110229492" y="923.462890625"/>
			<point x="776.4046020508" y="705.8095703125"/>
			<point x="856.6564331055" y="705.8095703125" type="qcurve" smooth="yes"/>
			<point x="782.8427124023" y="705.8095703125"/>
			<point x="562.0626831055" y="704.8095703125"/>
			<point x="511.0626831055" y="709.8095703125" type="qcurve"/>
			<point x="523.2001342773" y="825" type="line"/>
			<point x="459.9703979492" y="825" type="line"/>
			<point x="575.2050170898" y="825" type="line" smooth="yes"/>
			<point x="751.0719604492" y="825"/>
			<point x="899.5680541992" y="975.4460449219"/>
			<point x="914.2869262695" y="1120.9047851562" type="qcurve" smooth="yes"/>
			<point x="926.2805786133" y="1242.2705078125"/>
			<point x="832.2982788086" y="1371.8095703125"/>
			<point x="700.6100463867" y="1371.8095703125" type="qcurve" smooth="yes"/>
			<point x="564.5313110352" y="1371.8095703125" type="line"/>
			<point x="527.6080932617" y="1349.1112060547" type="line"/>
			<point x="414.6991577148" y="734" type="line"/>
			<point x="296.9982299805" y="119.9951171875" type="line"/>
			<point x="510.1137084961" y="99.9951171875" type="line"/>
			<point x="490.9646606445" y="0" type="line"/>
		</contour>
		<contour>
			<point x="621.7112426758" y="704.5395507812" type="line"/>
			<point x="774.1592407227" y="750" type="line"/>
			<point x="779.9623413086" y="710.8752441406" type="line" smooth="yes"/>
			<point x="807.7494506836" y="526.2136230469"/>
			<point x="946.6560668945" y="129.2591552734"/>
			<point x="1133.5842895508" y="98.8450927734" type="qcurve"/>
			<point x="1102.6654663086" y="0" type="line"/>
			<point x="1024.3275756836" y="0" type="line" smooth="yes"/>
			<point x="825.6657104492" y="0"/>
			<point x="655.3600463867" y="446.0280761719"/>
			<point x="627.9065551758" y="680.8032226562" type="qcurve" smooth="yes"/>
		</contour>
	</outline>
	<anchor name="bottom" x="573" y="0"/>
	<anchor name="top" x="670" y="1500"/>
</glyph>
<glyph name="S" format="2">
	<unicode hex="0053"/>
	<advance width="1015"/>
	<outline>
		<contour>
			<point x="-58.0524902344" y="16.8861083984" type="line"/>
			<point x="13.5086669922" y="435.0375976562" type="line"/>
			<point x="124.739074707" y="435.0375976562" type="line"/>
			<point x="124.739074707" y="309.2897949219" type="line" smooth="yes"/>
			<point x="124.739074707" y="219.2897949219"/>
			<point x="231.1733398438" y="111.2897949219"/>
			<point x="409.4086303711" y="111.2897949219" type="qcurve" smooth="yes"/>
			<point x="549.1777954102" y="111.2897949219"/>
			<point x="762.7004394531" y="253.4262695312"/>
			<point x="762.7004394531" y="377.7138671875" type="qcurve" smooth="yes"/>
			<point x="762.7004394531" y="524.7335205078"/>
			<point x="455.1708984375" y="692.6794433594"/>
			<point x="357.2016601562" y="784.7685546875" type="qcurve" smooth="yes"/>
			<point x="307.9241943359" y="843.7491455078"/>
			<point x="159.951171875" y="1045.9426269531"/>
			<point x="173.951171875" y="1192.4542236328" type="qcurve" smooth="yes"/>
			<point x="190.951171875" y="1305.5041503906"/>
			<point x="445.6668701172" y="1529"/>
			<point x="653.6000366211" y="1529" type="qcurve" smooth="yes"/>
			<point x="762.8311767578" y="1529"/>
			<point x="916.4965820312" y="1470.1657714844"/>
			<point x="917.4951782227" y="1462" type="qcurve"/>
			<point x="964.9332885742" y="1526.4990844727" type="line"/>
			<point x="1054.2352294922" y="1504.3391113281" type="line"/>
			<point x="989.7319335938" y="1083.8997802734" type="line"/>
			<point x="866.0573730469" y="1083.8997802734" type="line"/>
			<point x="866.0573730469" y="1266.8032226562" type="line"/>
			<point x="864.0573730469" y="1327.8032226562"/>
			<point x="737.8011474609" y="1395.8032226562"/>
			<point x="630.7872924805" y="1395.8032226562" type="qcurve" smooth="yes"/>
			<point x="526.0504150391" y="1395.8032226562"/>
			<point x="358.0295410156" y="1283.6682128906"/>
			<point x="354.4566650391" y="1186.7497558594" type="qcurve" smooth="yes"/>
			<point x="350.8837890625" y="1062.39453125"/>
			<point x="547.7294921875" y="947.0850830078"/>
			<point x="621.8315429688" y="880.7733154297" type="qcurve" smooth="yes"/>
			<point x="795.3596191406" y="741.2143554688"/>
			<point x="928.2301025391" y="530.4903564453"/>
			<point x="917.05078125" y="375.0456542969" type="qcurve" smooth="yes"/>
			<point x="902.8714599609" y="191.0983886719"/>
			<point x="653.2260742188" y="-20"/>
			<point x="411.2328491211" y="-20" type="qcurve" smooth="yes"/>
			<point x="248.3948364258" y="-20"/>
			<point x="113.7205200195" y="46.1950683594"/>
			<point x="86.6091308594" y="68.5065917969" type="qcurve"/>
			<point x="29.8876953125" y="-4.7176513672" type="line"/>
		</contour>
	</outline>
	<anchor name="bottom" x="399" y="0"/>
	<anchor name="top" x="679" y="1500"/>
</glyph>
<glyph name="T" format="2">
	<unicode hex="0054"/>
	<advance width="1176"/>
	<outline>
		<contour>
			<point x="92.749206543" y="1086.8892822266" type="line"/>
			<point x="174.4397583008" y="1500" type="line"/>
			<point x="1261.0435180664" y="1500" type="line"/>
			<point x="1179.3529663086" y="1086.8892822266" type="line"/>
			<point x="1080.3557739258" y="1086.8892822266" type="line"/>
			<point x="1106.5114135742" y="1369.822265625" type="line"/>
			<point x="796.2291870117" y="1369.822265625" type="line"/>
			<point x="782.2291870117" y="1349.822265625" type="line"/>
			<point x="663.7640991211" y="754" type="line"/>
			<point x="544.9131469727" y="119.9951171875" type="line"/>
			<point x="780.1569824219" y="99.9951171875" type="line"/>
			<point x="776.5951538086" y="0" type="line"/>
			<point x="144.2572631836" y="0" type="line"/>
			<point x="157.8190917969" y="99.9951171875" type="line"/>
			<point x="378.4107055664" y="119.9951171875" type="line"/>
			<point x="505.2616577148" y="754" type="line"/>
			<point x="620.7267456055" y="1349.822265625" type="line"/>
			<point x="616.7267456055" y="1369.822265625" type="line"/>
			<point x="281.9020385742" y="1369.822265625" type="line"/>
			<point x="191.7463989258" y="1086.8892822266" type="line"/>
		</contour>
	</outline>
	<anchor name="bottom" x="451" y="0"/>
	<anchor name="center" x="584" y="750"/>
	<anchor name="top" x="732" y="1500"/>
	<anchor name="cy_descender" x="755" y="100"/>
</glyph>
<glyph name="V" format="2">
	<unicode hex="0056"/>
	<advance width="1191"/>
	<outline>
		<contour>
			<point x="37.2810058594" y="1385.9547119141" type="line"/>
			<point x="57.0778808594" y="1500" type="line"/>
			<point x="591.9432373047" y="1500" type="line"/>
			<point x="572.5964355469" y="1388.0550537109" type="line"/>
			<point x="371.5731201172" y="1353.0048828125" type="line"/>
			<point x="408.1760253906" y="746.4597167969" type="line"/>
			<point x="427.76171875" y="438.7980957031" type="line"/>
			<point x="437.2399902344" y="277.7309570312" type="line"/>
			<point x="441.2399902344" y="277.7309570312" type="line"/>
			<point x="530.7396240234" y="438.2960205078" type="line"/>
			<point x="745.7578125" y="832.3986816406" type="line"/>
			<point x="1021.3444824219" y="1353.0048828125" type="line"/>
			<point x="818.6360473633" y="1387.9050292969" type="line"/>
			<point x="835.3739624023" y="1500" type="line"/>
			<point x="1377.7127075195" y="1500" type="line"/>
			<point x="1360.5247192383" y="1385.8046875" type="line"/>
			<point x="1167.0164794922" y="1353.0048828125" type="line"/>
			<point x="848.9008789062" y="787.1452636719" type="line"/>
			<point x="414.2416992188" y="0" type="line"/>
			<point x="315.2265625" y="0" type="line"/>
			<point x="255.8719482422" y="748.7338867188" type="line"/>
			<point x="217.1932373047" y="1353.0048828125" type="line"/>
		</contour>
	</outline>
	<anchor name="bottom" x="373" y="0"/>
	<anchor name="top" x="743" y="1500"/>
</glyph>
<glyph name="X" format="2">
	<unicode hex="0058"/>
	<advance width="1130"/>
	<outline>
		<contour>
			<point x="-231.5427246094" y="0" type="line"/>
			<point x="-222.6547851562" y="99.9951171875" type="line"/>
			<point x="-27.4337158203" y="133.9951171875" type="line"/>
			<point x="479.466796875" y="772.0817871094" type="line"/>
			<point x="251.2145996094" y="1353.0048828125" type="line"/>
			<point x="70.6457519531" y="1387.0048828125" type="line"/>
			<point x="82.6837158203" y="1500" type="line"/>
			<point x="639.1245727539" y="1500" type="line"/>
			<point x="627.0866088867" y="1387.0048828125" type="line"/>
			<point x="439.49609375" y="1353.0048828125" type="line"/>
			<point x="566.2393798828" y="1013.6165771484" type="line"/>
			<point x="593.0383300781" y="916.6198730469" type="line"/>
			<point x="603.0383300781" y="916.6198730469" type="line"/>
			<point x="674.8389892578" y="1022.3343505859" type="line"/>
			<point x="911.2607421875" y="1353.0048828125" type="line"/>
			<point x="744.4091186523" y="1387.0048828125" type="line"/>
			<point x="756.4470825195" y="1500" type="line"/>
			<point x="1300.0523681641" y="1500" type="line"/>
			<point x="1288.0144042969" y="1387.0048828125" type="line"/>
			<point x="1085.5322265625" y="1353.0048828125" type="line"/>
			<point x="642.5822753906" y="801.6674804688" type="line"/>
			<point x="907.6834716797" y="133.9951171875" type="line"/>
			<point x="1090.8612060547" y="99.9951171875" type="line"/>
			<point x="1081.9732666016" y="0" type="line"/>
			<point x="531.3051757812" y="0" type="line"/>
			<point x="540.1931152344" y="99.9951171875" type="line"/>
			<point x="724.1097412109" y="133.9951171875" type="line"/>
			<point x="566.0677490234" y="548.9962158203" type="line"/>
			<point x="530.7294921875" y="657.7114257812" type="line"/>
			<point x="520.7294921875" y="657.7114257812" type="line"/>
			<point x="432.5327148438" y="537.5415039062" type="line"/>
			<point x="146.8377685547" y="133.9951171875" type="line"/>
			<point x="327.6893920898" y="99.9951171875" type="line"/>
			<point x="317.9164428711" y="0" type="line"/>
		</contour>
	</outline>
	<anchor name="bottom" x="453" y="0"/>
	<anchor name="top" x="723" y="1500"/>
	<anchor name="cy_descender" x="1125" y="100"/>
	<anchor name="center" x="591" y="791"/>
</glyph>
<glyph name="Y" format="2">
	<unicode hex="0059"/>
	<advance width="1068"/>
	<outline>
		<contour>
			<point x="58.7532958984" y="0" type="line"/>
			<point x="72.6412353516" y="99.9951171875" type="line"/>
			<point x="311.8634033203" y="129.9951171875" type="line"/>
			<point x="412.9797363281" y="642.8312988281" type="line"/>
			<point x="312.1208496094" y="976.7100830078" type="line"/>
			<point x="185.0853271484" y="1353.0048828125" type="line"/>
			<point x="17.649230957" y="1387.0048828125" type="line"/>
			<point x="29.6871948242" y="1500" type="line"/>
			<point x="554.6699829102" y="1500" type="line"/>
			<point x="542.632019043" y="1387.0048828125" type="line"/>
			<point x="361.9913330078" y="1353.0048828125" type="line"/>
			<point x="438.7189941406" y="1083.8555908203" type="line"/>
			<point x="534.068359375" y="785.9750976562" type="line"/>
			<point x="544.068359375" y="785.9750976562" type="line"/>
			<point x="724.9675292969" y="1058.3074951172" type="line"/>
			<point x="927.2312011719" y="1353.0048828125" type="line"/>
			<point x="751.0093383789" y="1387.0048828125" type="line"/>
			<point x="763.0473022461" y="1500" type="line"/>
			<point x="1269.6094360352" y="1500" type="line"/>
			<point x="1257.571472168" y="1387.0048828125" type="line"/>
			<point x="1071.4354248047" y="1353.0048828125" type="line"/>
			<point x="828.8000488281" y="1021.8431396484" type="line"/>
			<point x="567.5493164062" y="632.2375488281" type="line"/>
			<point x="471.3570556641" y="129.9951171875" type="line"/>
			<point x="699.253112793" y="99.9951171875" type="line"/>
			<point x="691.3651733398" y="0" type="line"/>
		</contour>
	</outline>
	<anchor name="bottom" x="443" y="0"/>
	<anchor name="top" x="731" y="1500"/>
	<anchor name="tonos" x="-13" y="1500"/>
	<anchor name="center" x="553" y="579"/>
</glyph>
<glyph name="a" format="2">
	<unicode hex="0061"/>
	<advance width="1109"/>
	<outline>
		<contour>
			<point x="-4.7929979407" y="266" type="qcurve" smooth="yes"/>
			<point x="-24.636442765" y="556.1437988281"/>
			<point x="438.4333204186" y="984.1445922852"/>
			<point x="606.0810254968" y="984.1445922852" type="qcurve" smooth="yes"/>
			<point x="649.894013778" y="984.1445922852"/>
			<point x="720.6823438561" y="964.1445922852"/>
			<point x="746.9220899499" y="948.1445922852" type="qcurve"/>
			<point x="781.9122022546" y="1003.1445922852" type="line"/>
			<point x="838.0478223718" y="1003.1445922852" type="line"/>
			<point x="900.6863721764" y="802.1445922852" type="line"/>
			<point x="803.9136670983" y="393" type="line"/>
			<point x="770.8294996179" y="229" type="line"/>
			<point x="769.879182235" y="168"/>
			<point x="793.9414991296" y="86"/>
			<point x="829.4649366296" y="20" type="qcurve"/>
			<point x="646.3955396569" y="-9" type="line"/>
			<point x="618.5386060632" y="20.6447143555"/>
			<point x="597.7405713952" y="124.7030639648"/>
			<point x="598.0766920007" y="188.1328735352" type="qcurve"/>
			<point x="501.6809400475" y="107.9047241211"/>
			<point x="316.4837354577" y="-10"/>
			<point x="247.7940381921" y="-10" type="qcurve" smooth="yes"/>
			<point x="94.9312452233" y="-10"/>
			<point x="2.4964307702" y="149"/>
		</contour>
		<contour>
			<point x="162.2544874108" y="269.0035400391" type="qcurve" smooth="yes"/>
			<point x="166.304170028" y="203.6229248047"/>
			<point x="226.80691661" y="125.0848999023"/>
			<point x="293.6255201257" y="125.0848999023" type="qcurve" smooth="yes"/>
			<point x="410.5024732507" y="125.0848999023"/>
			<point x="649.1491407311" y="369"/>
			<point x="680.6465772546" y="526" type="qcurve" smooth="yes"/>
			<point x="745.8462842858" y="817.0596923828" type="line"/>
			<point x="738.3916334069" y="850.0596923828"/>
			<point x="649.515107528" y="877.9334106445"/>
			<point x="596.2008375085" y="877.9334106445" type="qcurve" smooth="yes"/>
			<point x="392.6456617272" y="877.9334106445"/>
			<point x="149.2955030358" y="475.1437988281"/>
		</contour>
	</outline>
	<anchor name="bottom" x="345" y="0"/>
	<anchor name="ogonek" x="732" y="0"/>
	<anchor name="top" x="608" y="1000"/>
</glyph>
<glyph name="b" format="2">
	<unicode hex="0062"/>
	<advance width="1093"/>
	<outline>
		<contour>
			<point x="57.6944580078" y="313" type="qcurve" smooth="yes"/>
			<point x="116.6944580078" y="633" type="line"/>
			<point x="263.0443725586" y="1422.8758544922" type="line"/>
			<point x="144.0443725586" y="1518.8758544922" type="line"/>
			<point x="174.6342773438" y="1602.8753662109" type="line"/>
			<point x="330.4006958008" y="1642.8753662109" type="line"/>
			<point x="428.4006958008" y="1533.8753662109" type="line"/>
			<point x="239.4608764648" y="572" type="line"/>
			<point x="154.1024780273" y="105.1702880859" type="line" smooth="yes"/>
			<point x="150.1024780273" y="48.3023681641"/>
			<point x="215.3919067383" y="15.1702880859"/>
			<point x="255.6813354492" y="18.1702880859" type="qcurve" smooth="yes"/>
			<point x="482.8153686523" y="15.1702880859"/>
			<point x="805.8643188477" y="410.435546875"/>
			<point x="790.4755249023" y="672.6051025391" type="qcurve" smooth="yes"/>
			<point x="783.9960327148" y="769.2841796875"/>
			<point x="723.6790161133" y="847.6802978516"/>
			<point x="647.3809204102" y="847.6802978516" type="qcurve" smooth="yes"/>
			<point x="542.7685546875" y="847.6802978516"/>
			<point x="282.6375732422" y="701.2984619141"/>
			<point x="192.4384155273" y="617.1853027344" type="qcurve"/>
			<point x="146.5894165039" y="699.2044677734" type="line"/>
			<point x="188.1696166992" y="767.2208251953"/>
			<point x="578.4419555664" y="1019.0014648438"/>
			<point x="734.2401123047" y="1019.0014648438" type="qcurve" smooth="yes"/>
			<point x="829.131652832" y="1019.0014648438"/>
			<point x="934.2883300781" y="861.0014648438"/>
			<point x="945.2224731445" y="714.0014648438" type="qcurve" smooth="yes"/>
			<point x="965.4708862305" y="360.0014648438"/>
			<point x="521.5853271484" y="-31"/>
			<point x="300.1627197266" y="-31" type="qcurve" smooth="yes"/>
			<point x="108.8369140625" y="-31"/>
			<point x="32.6944580078" y="177"/>
		</contour>
	</outline>
	<anchor name="bottom" x="571" y="0"/>
	<anchor name="top" x="571" y="1533"/>
</glyph>
<glyph name="c" format="2">
	<unicode hex="0063"/>
	<advance width="971"/>
	<outline>
		<contour>
			<point x="3.9201660156" y="496.0007324219" type="qcurve" smooth="yes"/>
			<point x="42.6345214844" y="734.1439208984"/>
			<point x="430.6875" y="1021.7338867188"/>
			<point x="617.0269775391" y="1021.7338867188" type="qcurve" smooth="yes"/>
			<point x="704.16015625" y="1021.7338867188"/>
			<point x="850.0468139648" y="923.6986694336"/>
			<point x="850.0468139648" y="847.0308227539" type="qcurve" smooth="yes"/>
			<point x="850.0468139648" y="764.0775146484"/>
			<point x="765.6167602539" y="630.8854370117"/>
			<point x="704.4647827148" y="610.8854370117" type="qcurve"/>
			<point x="684.1180419922" y="636.8854370117" type="line"/>
			<point x="679.5787353516" y="826.2522583008" type="line" smooth="yes"/>
			<point x="679.213684082" y="852.2522583008"/>
			<point x="648.3037719727" y="882.0331420898"/>
			<point x="562.7696533203" y="882.0331420898" type="qcurve" smooth="yes"/>
			<point x="406.7213134766" y="882.0331420898"/>
			<point x="185.3863525391" y="655.5725097656"/>
			<point x="165.7458496094" y="490.2864379883" type="qcurve" smooth="yes"/>
			<point x="145.6029052734" y="330.2860107422"/>
			<point x="232.9589233398" y="134.6032714844"/>
			<point x="370.3233642578" y="134.6032714844" type="qcurve" smooth="yes"/>
			<point x="526.5171508789" y="134.6032714844"/>
			<point x="728.5054321289" y="259.0640258789"/>
			<point x="752.7939453125" y="327.63671875" type="qcurve"/>
			<point x="802.5313720703" y="262" type="line"/>
			<point x="802.5313720703" y="212" type="line"/>
			<point x="746.1519165039" y="112.475769043"/>
			<point x="500.2786254883" y="-26.732421875"/>
			<point x="330.3255004883" y="-26.732421875" type="qcurve" smooth="yes"/>
			<point x="130.6814575195" y="-26.732421875"/>
			<point x="-34.0798950195" y="262.0004272461"/>
		</contour>
	</outline>
	<anchor name="bottom" x="343" y="0"/>
	<anchor name="top" x="600" y="1000"/>
</glyph>
<glyph name="d" format="2">
	<unicode hex="0064"/>
	<advance width="1127"/>
	<outline>
		<contour>
			<point x="-4.775390625" y="266.2860717773" type="qcurve" smooth="yes"/>
			<point x="-4.775390625" y="549.4294433594"/>
			<point x="424.5902709961" y="982.6922607422"/>
			<point x="671.0463256836" y="996.0016479492" type="qcurve" smooth="yes"/>
			<point x="752.2363891602" y="996.0016479492" type="line"/>
			<point x="832.0505981445" y="1412.5817871094" type="line"/>
			<point x="692.8717041016" y="1513.5817871094" type="line"/>
			<point x="723.4616088867" y="1597.5812988281" type="line"/>
			<point x="917.3049926758" y="1642.5812988281" type="line"/>
			<point x="1015.3049926758" y="1533.5812988281" type="line"/>
			<point x="806.3651733398" y="469" type="line"/>
			<point x="756.8551025391" y="134.9995117188" type="line"/>
			<point x="899.955078125" y="124.9995117188" type="line"/>
			<point x="902.3651733398" y="44" type="line"/>
			<point x="623.8773803711" y="-8" type="line"/>
			<point x="576.8773803711" y="73" type="line"/>
			<point x="589.8773803711" y="192" type="line"/>
			<point x="549.0599365234" y="99.1428222656"/>
			<point x="286.1727294922" y="-15"/>
			<point x="215.1789550781" y="-15" type="qcurve" smooth="yes"/>
			<point x="100.5196533203" y="-15"/>
			<point x="-4.775390625" y="136.4287719727"/>
		</contour>
		<contour>
			<point x="161.940612793" y="285.0335083008" type="qcurve" smooth="yes"/>
			<point x="161.940612793" y="209.0983886719"/>
			<point x="220.6575317383" y="127.6402587891"/>
			<point x="276.8959350586" y="127.6402587891" type="qcurve" smooth="yes"/>
			<point x="396.6134643555" y="127.6402587891"/>
			<point x="623.2207641602" y="328.479309082"/>
			<point x="664.6013793945" y="511.3979492188" type="qcurve" smooth="yes"/>
			<point x="738.6481323242" y="818.7108764648" type="line"/>
			<point x="730.7885131836" y="851.7108764648"/>
			<point x="673.2691040039" y="888.7108764648"/>
			<point x="622.3846435547" y="888.7108764648" type="qcurve" smooth="yes"/>
			<point x="420.8395996094" y="888.7108764648"/>
			<point x="161.940612793" y="494.9519042969"/>
		</contour>
	</outline>
	<anchor name="bottom" x="604" y="0"/>
	<anchor name="center" x="876" y="1202"/>
	<anchor name="top" x="704" y="1534"/>
	<anchor name="topright" x="1076" y="1000"/>
	<anchor name="liga" x="1067" y="0"/>
</glyph>
<glyph name="e" format="2">
	<unicode hex="0065"/>
	<advance width="1032"/>
	<outline>
		<contour>
			<point x="6.7263183594" y="478.4294433594" type="qcurve" smooth="yes"/>
			<point x="51.0120849609" y="747.2868652344"/>
			<point x="457.9864501953" y="1024.8586425781"/>
			<point x="590.4010009766" y="1024.8586425781" type="qcurve" smooth="yes"/>
			<point x="735.0303344727" y="1024.8586425781"/>
			<point x="900.3588256836" y="880.4605712891"/>
			<point x="892.4456787109" y="777.7098999023" type="qcurve" smooth="yes"/>
			<point x="875.9944458008" y="752.6868896484"/>
			<point x="868.1880493164" y="677.7551269531"/>
			<point x="854.9071655273" y="645.4294433594" type="qcurve"/>
			<point x="900.6214599609" y="636.4294433594" type="line"/>
			<point x="869.6683959961" y="534.2355957031" type="line"/>
			<point x="884.6920166016" y="536.2355957031"/>
			<point x="704.4879150391" y="534.0424804688"/>
			<point x="719.8146972656" y="536.2355957031" type="qcurve" smooth="yes"/>
			<point x="201.9647216797" y="534.2355957031" type="line"/>
			<point x="193.2034912109" y="627.2391357422" type="line"/>
			<point x="674.4374389648" y="637.4294433594" type="line"/>
			<point x="688.3350830078" y="671.6510620117"/>
			<point x="705.541015625" y="764.0460205078"/>
			<point x="693.1340332031" y="810.6803588867" type="qcurve" smooth="yes"/>
			<point x="680.1551513672" y="860.4778442383"/>
			<point x="616.4707641602" y="922.3931274414"/>
			<point x="575.2684936523" y="922.3931274414" type="qcurve" smooth="yes"/>
			<point x="447.7678222656" y="922.3931274414"/>
			<point x="217.9208374023" y="704.6187744141"/>
			<point x="181.9845581055" y="505.4294433594" type="qcurve" smooth="yes"/>
			<point x="145.0642700195" y="309.0185546875"/>
			<point x="308.1184692383" y="83.1142578125"/>
			<point x="391.1960449219" y="85.4188232422" type="qcurve" smooth="yes"/>
			<point x="568.0369873047" y="79.6669311523"/>
			<point x="719.5911254883" y="189.8850708008"/>
			<point x="768.3116455078" y="309.5935058594" type="qcurve"/>
			<point x="799.8923950195" y="260" type="line"/>
			<point x="822.8427124023" y="231" type="line"/>
			<point x="760.7709350586" y="107.0936279297"/>
			<point x="500.3406982422" y="-29.3988647461"/>
			<point x="329.2992553711" y="-29" type="qcurve" smooth="yes"/>
			<point x="198.7799682617" y="-34.0237426758"/>
			<point x="-26.5595092773" y="274.2860107422"/>
		</contour>
	</outline>
	<anchor name="bottom" x="339" y="0"/>
	<anchor name="ogonek" x="495" y="0"/>
	<anchor name="top" x="601" y="1000"/>
</glyph>
<glyph name="f" format="2">
	<unicode hex="0066"/>
	<advance width="614"/>
	<outline>
		<contour>
			<point x="-360.4229125977" y="-427.7021484375" type="line" smooth="yes"/>
			<point x="-350.7283325195" y="-353.3463745117" type="line"/>
			<point x="-216.7113647461" y="-351.3463745117" type="line" smooth="yes"/>
			<point x="-98.7113647461" y="-349.8619384766"/>
			<point x="10.19140625" y="-170.3665771484"/>
			<point x="70.5037231445" y="172.8798828125" type="qcurve" smooth="yes"/>
			<point x="190.5954589844" y="857.0014648438" type="line"/>
			<point x="202.5954589844" y="894.0014648438" type="line"/>
			<point x="276.5224609375" y="1265.7584228516" type="line" smooth="yes"/>
			<point x="311.2367553711" y="1442.044128418"/>
			<point x="478.7020874023" y="1618.7584228516"/>
			<point x="583.1635742188" y="1618.7584228516" type="qcurve" smooth="yes"/>
			<point x="674.4075927734" y="1618.7584228516"/>
			<point x="773.2482299805" y="1556.0109863281"/>
			<point x="773.2482299805" y="1490.6130371094" type="qcurve" smooth="yes"/>
			<point x="773.2482299805" y="1443.2306518555"/>
			<point x="716.5425415039" y="1382.6735229492"/>
			<point x="705.6447143555" y="1382.6735229492" type="qcurve" smooth="yes"/>
			<point x="677.1681518555" y="1382.6735229492"/>
			<point x="660.6447143555" y="1396.6735229492"/>
			<point x="660.6447143555" y="1425.6735229492" type="qcurve" smooth="yes"/>
			<point x="660.6447143555" y="1458.6735229492"/>
			<point x="634.9404296875" y="1514.7219848633"/>
			<point x="589.0631103516" y="1514.7219848633" type="qcurve" smooth="yes"/>
			<point x="518.4605712891" y="1514.7219848633"/>
			<point x="442.0628051758" y="1439.9434204102"/>
			<point x="427.5748901367" y="1341.6735229492" type="qcurve" smooth="yes"/>
			<point x="356.6077880859" y="890.0014648438" type="line"/>
			<point x="355.6077880859" y="865.0014648438" type="line"/>
			<point x="234.0360717773" y="214" type="line" smooth="yes"/>
			<point x="154.0782470703" y="-211.6467895508"/>
			<point x="-11.5687255859" y="-469.7021484375"/>
			<point x="-125.4059448242" y="-469.7021484375" type="qcurve"/>
		</contour>
		<contour>
			<point x="1.0848999023" y="831.8369750977" type="line"/>
			<point x="15.7354125977" y="892.0014648438" type="line"/>
			<point x="206.5954589844" y="923.0014648438" type="line"/>
			<point x="582.4578857422" y="923.0014648438" type="line"/>
			<point x="573.6637573242" y="825.8369750977" type="line"/>
			<point x="284.2943115234" y="832.8369750977" type="line"/>
			<point x="216.1975097656" y="814.8369750977" type="line"/>
		</contour>
	</outline>
	<anchor name="bottom" x="217" y="0"/>
	<anchor name="top" x="554" y="1536"/>
</glyph>
<glyph name="g" format="2">
	<unicode hex="0067"/>
	<advance width="1029"/>
	<outline>
		<contour>
			<point x="-19.3542480469" y="262.0001220703" type="qcurve" smooth="yes"/>
			<point x="-41.2225341797" y="556.4766845703"/>
			<point x="295.3280639648" y="982.7160644531"/>
			<point x="599.9102172852" y="982.7160644531" type="qcurve" smooth="yes"/>
			<point x="646.5797729492" y="982.7160644531"/>
			<point x="753.799621582" y="962.7160644531"/>
			<point x="782.4691772461" y="946.7160644531" type="qcurve"/>
			<point x="641.0118408203" y="1001.7160644531" type="line"/>
			<point x="780.0118408203" y="1001.7160644531" type="line"/>
			<point x="846.2975463867" y="800.7160644531" type="line"/>
			<point x="798.4400634766" y="600" type="line" smooth="yes"/>
			<point x="756.8686523438" y="420.7142944336"/>
			<point x="709.3533325195" y="171.8637695312"/>
			<point x="671.5943603516" y="36.771484375" type="qcurve" smooth="yes"/>
			<point x="587.4323730469" y="-260.3511352539"/>
			<point x="322.6817626953" y="-498.2709960938"/>
			<point x="204.1439819336" y="-488.2709960938" type="qcurve"/>
			<point x="144.4285888672" y="-443.2709960938" type="line"/>
			<point x="142.4385375977" y="-370.4614868164" type="line"/>
			<point x="231.1760864258" y="-364.4614868164" type="line" smooth="yes"/>
			<point x="366.5541381836" y="-356.5904541016"/>
			<point x="524.796875" y="-164.3534545898"/>
			<point x="567.0057373047" y="34.771484375" type="qcurve" smooth="yes"/>
			<point x="596.4961547852" y="174.7689208984" type="line"/>
			<point x="475.0817871094" y="85.2953491211"/>
			<point x="278.5818481445" y="-10"/>
			<point x="249.9138183594" y="-10" type="qcurve" smooth="yes"/>
			<point x="124.3353881836" y="-10"/>
			<point x="-8.8250732422" y="154.9880371094"/>
		</contour>
		<contour>
			<point x="100.8392944336" y="302.9689941406" type="qcurve" smooth="yes"/>
			<point x="106.5088500977" y="221.0500488281"/>
			<point x="175.356262207" y="137.1315917969"/>
			<point x="237.3377685547" y="137.1315917969" type="qcurve" smooth="yes"/>
			<point x="359.4851074219" y="137.1315917969"/>
			<point x="613.1848754883" y="339.0657958984"/>
			<point x="656.7562866211" y="521.6193847656" type="qcurve" smooth="yes"/>
			<point x="734.9459228516" y="827.9650878906" type="line"/>
			<point x="730.3260498047" y="860.9650878906"/>
			<point x="646.9685058594" y="897.9650878906"/>
			<point x="588.9138793945" y="897.9650878906" type="qcurve" smooth="yes"/>
			<point x="375.950378418" y="897.9650878906"/>
			<point x="83.4256591797" y="501.4118041992"/>
		</contour>
	</outline>
	<anchor name="bottom" x="324" y="-416"/>
	<anchor name="top" x="603" y="1000"/>
</glyph>
<glyph name="h" format="2">
	<unicode hex="0068"/>
	<advance width="1201"/>
	<outline>
		<contour>
			<point x="44.1722412109" y="-23" type="line"/>
			<point x="2.1722412109" y="56" type="line"/>
			<point x="105.1722412109" y="527" type="line"/>
			<point x="268.3751220703" y="1421.9936523438" type="line"/>
			<point x="149.3751220703" y="1517.9936523438" type="line"/>
			<point x="179.9650268555" y="1601.9931640625" type="line"/>
			<point x="355.4351196289" y="1641.9931640625" type="line"/>
			<point x="454.3042602539" y="1532.9931640625" type="line"/>
			<point x="271.6423339844" y="588" type="line"/>
			<point x="186.6423339844" y="87" type="line"/>
			<point x="217.6423339844" y="0" type="line"/>
		</contour>
		<contour>
			<point x="690.8679199219" y="-14" type="line"/>
			<point x="637.8679199219" y="116" type="line"/>
			<point x="758.7897949219" y="704.4666137695" type="line" smooth="yes"/>
			<point x="774.2534179688" y="784.1944580078"/>
			<point x="739.8099975586" y="873.9943847656"/>
			<point x="653.5303344727" y="873.9943847656" type="qcurve" smooth="yes"/>
			<point x="557.8255004883" y="873.9943847656"/>
			<point x="334.5342407227" y="745.1770019531"/>
			<point x="253.0082397461" y="679.9943847656" type="qcurve"/>
			<point x="208.485168457" y="720.0014648438" type="line"/>
			<point x="301.5381469727" y="838.3989257812"/>
			<point x="599.428527832" y="1021.0014648438"/>
			<point x="723.1971435547" y="1021.0014648438" type="qcurve" smooth="yes"/>
			<point x="825.7780761719" y="1021.0014648438"/>
			<point x="963.5294799805" y="875.9107666016"/>
			<point x="934.8953857422" y="740.0961303711" type="qcurve" smooth="yes"/>
			<point x="810.9871826172" y="149.9995117188" type="line"/>
			<point x="965.9871826172" y="133.9995117188" type="line"/>
			<point x="964.397277832" y="46" type="line"/>
		</contour>
	</outline>
	<anchor name="bottom" x="420" y="0"/>
	<anchor name="center" x="347" y="1202"/>
	<anchor name="top" x="424" y="1534"/>
</glyph>
<glyph name="k" format="2">
	<unicode hex="006B"/>
	<advance width="1100"/>
	<outline>
		<contour>
			<point x="535.8659667969" y="462.8167114258" type="line"/>
			<point x="184.8463745117" y="222.1319580078" type="line"/>
			<point x="134.1519775391" y="268.4847412109" type="line"/>
			<point x="714.6772460938" y="720.3204345703" type="line"/>
			<point x="709.8630981445" y="792.7096557617"/>
			<point x="641.3987426758" y="863.0022583008"/>
			<point x="575.4329833984" y="863.0022583008" type="qcurve" smooth="yes"/>
			<point x="510.0936889648" y="863.0022583008"/>
			<point x="352.9174804688" y="734.3180541992"/>
			<point x="299.7550048828" y="672.6622314453" type="qcurve"/>
			<point x="298.1832885742" y="664.6607666016" type="line"/>
			<point x="203.6763916016" y="108" type="line"/>
			<point x="233.6763916016" y="0" type="line"/>
			<point x="44.1722412109" y="-23" type="line"/>
			<point x="2.1722412109" y="56" type="line"/>
			<point x="105.1722412109" y="527" type="line"/>
			<point x="267.7869873047" y="1422.7717895508" type="line"/>
			<point x="149.3751220703" y="1518.7717895508" type="line"/>
			<point x="179.9650268555" y="1602.5812988281" type="line"/>
			<point x="366.4691772461" y="1642.5812988281" type="line"/>
			<point x="464.4691772461" y="1533.5812988281" type="line"/>
			<point x="320.7259521484" y="778.0489501953" type="line"/>
			<point x="384.5473632812" y="866.094543457"/>
			<point x="551.6546630859" y="998.5340576172"/>
			<point x="636.9650268555" y="998.5340576172" type="qcurve" smooth="yes"/>
			<point x="724.99609375" y="998.5340576172"/>
			<point x="836.1262817383" y="893.298828125"/>
			<point x="858.344909668" y="838.0624389648" type="qcurve" smooth="yes"/>
			<point x="877.9418945312" y="738.9515380859" type="line"/>
			<point x="866.2117919922" y="714.3961791992" type="line"/>
			<point x="488.6312866211" y="437.8949584961" type="line"/>
		</contour>
		<contour>
			<point x="562.2661743164" y="564.8077392578" type="line"/>
			<point x="810.2243041992" y="143.9995117188" type="line"/>
			<point x="915.0440063477" y="134.9995117188" type="line"/>
			<point x="910.0440063477" y="45" type="line"/>
			<point x="742.132019043" y="-15" type="line" smooth="yes"/>
			<point x="727.5171508789" y="-19.364440918"/>
			<point x="700.0576782227" y="-1"/>
			<point x="635.7706298828" y="106" type="qcurve" smooth="yes"/>
			<point x="433.0742797852" y="450.4078369141" type="line"/>
		</contour>
	</outline>
	<anchor name="bottom" x="448" y="0"/>
	<anchor name="top" x="578" y="1534"/>
</glyph>
<glyph name="m" format="2">
	<unicode hex="006D"/>
	<advance width="1777"/>
	<outline>
		<contour>
			<point x="59.9975585938" y="-7" type="line"/>
			<point x="30.9975585938" y="120" type="line"/>
			<point x="124.5689697266" y="495.2857055664" type="line"/>
			<point x="181.2193603516" y="793.001953125" type="line"/>
			<point x="39.9793701172" y="789.001953125" type="line"/>
			<point x="40.5692749023" y="891.0014648438" type="line"/>
			<point x="86.6408691406" y="1000.0014648438" type="line"/>
			<point x="298.6408691406" y="1000.0014648438" type="line"/>
			<point x="321.6457519531" y="693.4135742188" type="line"/>
			<point x="308.6405639648" y="636.2857055664" type="line"/>
			<point x="205.069152832" y="160" type="line"/>
			<point x="248.069152832" y="16" type="line"/>
		</contour>
		<contour>
			<point x="692.2107543945" y="-14" type="line"/>
			<point x="639.2107543945" y="116" type="line"/>
			<point x="760.6699829102" y="712.9943847656" type="line" smooth="yes"/>
			<point x="775.9317016602" y="787.6680297852"/>
			<point x="719.5488891602" y="873.9943847656"/>
			<point x="639.7363891602" y="873.9943847656" type="qcurve" smooth="yes"/>
			<point x="547.8399047852" y="873.9943847656"/>
			<point x="337.2666625977" y="734.3127441406"/>
			<point x="231.0277099609" y="627.1885375977" type="qcurve"/>
			<point x="223.5475463867" y="705.8148193359" type="line"/>
			<point x="233.8015136719" y="756.204284668"/>
			<point x="509.5161132812" y="1021.0014648438"/>
			<point x="632.3049926758" y="1021.0014648438" type="qcurve" smooth="yes"/>
			<point x="779.7510986328" y="1021.0014648438"/>
			<point x="942.2507324219" y="799.5268554688"/>
			<point x="903.4896240234" y="640.0014648438" type="qcurve" smooth="yes"/>
			<point x="802.9179077148" y="160" type="line"/>
			<point x="842.9179077148" y="22" type="line"/>
		</contour>
		<contour>
			<point x="1283.5829467773" y="-14" type="line"/>
			<point x="1230.5829467773" y="116" type="line"/>
			<point x="1352.042175293" y="712.9943847656" type="line" smooth="yes"/>
			<point x="1367.303894043" y="787.6680297852"/>
			<point x="1311.3556518555" y="873.9943847656"/>
			<point x="1231.5431518555" y="873.9943847656" type="qcurve" smooth="yes"/>
			<point x="1140.950378418" y="873.9943847656"/>
			<point x="934.7228393555" y="733.0090332031"/>
			<point x="829.0290527344" y="627.9766845703" type="qcurve"/>
			<point x="816.8200073242" y="712.1199951172" type="line"/>
			<point x="827.7001342773" y="747.0191040039"/>
			<point x="1116.5702514648" y="1021.0014648438"/>
			<point x="1217.2100219727" y="1021.0014648438" type="qcurve" smooth="yes"/>
			<point x="1359.8462524414" y="1021.0014648438"/>
			<point x="1526.8569335938" y="806.1473388672"/>
			<point x="1491.7092285156" y="640.0014648438" type="qcurve" smooth="yes"/>
			<point x="1388.3474121094" y="149.9995117188" type="line"/>
			<point x="1543.7274169922" y="133.9995117188" type="line"/>
			<point x="1542.137512207" y="46" type="line"/>
		</contour>
	</outline>
	<anchor name="bottom" x="958" y="0"/>
	<anchor name="top" x="958" y="1000"/>
	<anchor name="cy_descender" x="1572" y="134"/>
</glyph>
<glyph name="n" format="2">
	<unicode hex="006E"/>
	<advance width="1193"/>
	<outline>
		<contour>
			<point x="67.9008178711" y="-31.4543457031" type="line"/>
			<point x="26.8948364258" y="48.2568359375" type="line"/>
			<point x="123.9975585938" y="495" type="line"/>
			<point x="186.2058105469" y="813.4937744141" type="line"/>
			<point x="44.2058105469" y="809.4937744141" type="line"/>
			<point x="44.5100097656" y="911.4932861328" type="line"/>
			<point x="260.033203125" y="995.6557617188" type="line"/>
			<point x="310.4630737305" y="995.6557617188" type="line"/>
			<point x="346.2402954102" y="733.6900634766" type="line"/>
			<point x="319.8913574219" y="636" type="line"/>
			<point x="205.6953125" y="88.2568359375" type="line"/>
			<point x="244.1502075195" y="-0.5728759766" type="line"/>
		</contour>
		<contour>
			<point x="715.6232299805" y="-14" type="line"/>
			<point x="665.1574707031" y="92.3555908203" type="line"/>
			<point x="785.7691650391" y="708.048828125" type="line" smooth="yes"/>
			<point x="802.0620117188" y="788.8977661133"/>
			<point x="762.2006835938" y="894.6884765625"/>
			<point x="671.3541259766" y="894.6884765625" type="qcurve" smooth="yes"/>
			<point x="579.8922119141" y="894.6884765625"/>
			<point x="325.337890625" y="681.2950439453"/>
			<point x="273.3104248047" y="622.174621582" type="qcurve"/>
			<point x="222.861328125" y="665.6053466797" type="line"/>
			<point x="302.9964599609" y="792.6724243164"/>
			<point x="619.2887573242" y="1017.5340576172"/>
			<point x="738.0559082031" y="1017.5340576172" type="qcurve" smooth="yes"/>
			<point x="836.7178955078" y="1017.5340576172"/>
			<point x="981.1374511719" y="899.8447265625"/>
			<point x="956.169921875" y="778.4005126953" type="qcurve" smooth="yes"/>
			<point x="829.6071166992" y="149.9995117188" type="line"/>
			<point x="984.6071166992" y="133.9995117188" type="line"/>
			<point x="983.0172119141" y="46" type="line"/>
		</contour>
	</outline>
	<anchor name="bottom" x="522" y="0"/>
	<anchor name="top" x="602" y="1000"/>
	<anchor name="liga" x="1173" y="0"/>
</glyph>
<glyph name="o" format="2">
	<unicode hex="006F"/>
	<advance width="1139"/>
	<outline>
		<contour>
			<point x="13.35353597" y="541.8092651367" type="qcurve" smooth="yes"/>
			<point x="58.7107137044" y="734.3652954102"/>
			<point x="341.5975952148" y="1013.6604003906"/>
			<point x="554.5077107747" y="1013.0176391602" type="qcurve" smooth="yes"/>
			<point x="751.3223266602" y="1012.018371582"/>
			<point x="970.3335571289" y="714.4116210938"/>
			<point x="911.1627197266" y="477.9313354492" type="qcurve" smooth="yes"/>
			<point x="866.5936889648" y="288.5733032227"/>
			<point x="584.7123413086" y="-20.7981567383"/>
			<point x="350.8777669271" y="-17.8509521484" type="qcurve" smooth="yes"/>
			<point x="178.0104370117" y="-20.966796875"/>
			<point x="-45.241007487" y="299.0456542969"/>
		</contour>
		<contour>
			<point x="164.4285481771" y="524.7133178711" type="qcurve" smooth="yes"/>
			<point x="131.054955835" y="345.484837156"/>
			<point x="229.4533284505" y="79.7494506836"/>
			<point x="362.33009847" y="73.4512939453" type="qcurve" smooth="yes"/>
			<point x="503.5163520437" y="71.2798490073"/>
			<point x="706.1619466146" y="289.9840698242"/>
			<point x="738.2202351888" y="488.5721435547" type="qcurve" smooth="yes"/>
			<point x="767.6319783528" y="666.3955688477"/>
			<point x="651.179075249" y="898.5716097292"/>
			<point x="518.7876790364" y="905.6995239258" type="qcurve" smooth="yes"/>
			<point x="376.0753377278" y="913.1512451172"/>
			<point x="194.4834636903" y="702.7583987412"/>
		</contour>
	</outline>
	<anchor name="bottom" x="358" y="0"/>
	<anchor name="center" x="461" y="500"/>
	<anchor name="ogonek" x="514" y="0"/>
	<anchor name="top" x="584" y="1000"/>
	<anchor name="topright" x="663" y="1000"/>
	<anchor name="GRKtop" x="584" y="1000"/>
	<anchor name="yu_dash" x="83" y="498"/>
</glyph>
<glyph name="p" format="2">
	<unicode hex="0070"/>
	<advance width="1050"/>
	<outline>
		<contour>
			<point x="-87.0244140625" y="-391.0864257812" type="line"/>
			<point x="129.8666992188" y="637" type="line"/>
			<point x="159.7241210938" y="786.858581543" type="line"/>
			<point x="117.7241210938" y="929.858581543" type="line"/>
			<point x="122.6431274414" y="1039.858581543" type="line"/>
			<point x="241.6431274414" y="1039.858581543" type="line"/>
			<point x="276.2194213867" y="811.858581543" type="line"/>
			<point x="340.674621582" y="885.2482299805"/>
			<point x="597.7797851562" y="1016.3911743164"/>
			<point x="684.4354248047" y="1016.3911743164" type="qcurve" smooth="yes"/>
			<point x="803.9525146484" y="1016.3911743164"/>
			<point x="901.0319824219" y="883.6495361328"/>
			<point x="908.7263793945" y="751.4616699219" type="qcurve" smooth="yes"/>
			<point x="927.7598876953" y="393.1433105469"/>
			<point x="464.8577880859" y="30"/>
			<point x="259.0198974609" y="30" type="qcurve" smooth="yes"/>
			<point x="230.0662841797" y="30"/>
			<point x="180.8353881836" y="41"/>
			<point x="155.7857055664" y="51" type="qcurve"/>
			<point x="77.0436401367" y="-346.0869140625" type="line"/>
			<point x="241.0436401367" y="-386.0869140625" type="line"/>
			<point x="217.8945922852" y="-452.0864257812" type="line"/>
			<point x="29.9755859375" y="-486.0864257812" type="line"/>
		</contour>
		<contour>
			<point x="191.0498657227" y="246.8868408203" type="line"/>
			<point x="180.0121459961" y="180.8680419922"/>
			<point x="227.21875" y="138.6228027344"/>
			<point x="275.5578613281" y="138.6228027344" type="qcurve" smooth="yes"/>
			<point x="488.1438598633" y="138.6228027344"/>
			<point x="746.5941162109" y="486.2537231445"/>
			<point x="726.7506713867" y="739.895324707" type="qcurve" smooth="yes"/>
			<point x="720.6761474609" y="794.32421875"/>
			<point x="668.7663574219" y="846.371887207"/>
			<point x="595.7329101562" y="846.371887207" type="qcurve" smooth="yes"/>
			<point x="519.2695922852" y="846.371887207"/>
			<point x="348.0134277344" y="745.1412963867"/>
			<point x="268.8883666992" y="675.6885375977" type="qcurve"/>
			<point x="250.0498657227" y="564.1887207031" type="line"/>
		</contour>
	</outline>
	<anchor name="bottom" x="599" y="0"/>
	<anchor name="top" x="599" y="1000"/>
</glyph>
<glyph name="q" format="2">
	<unicode hex="0071"/>
	<advance width="1063"/>
	<outline>
		<contour>
			<point x="-4.775390625" y="266" type="qcurve" smooth="yes"/>
			<point x="-4.775390625" y="559.2865600586"/>
			<point x="419.3227341777" y="982.7160644531"/>
			<point x="535.7343552715" y="982.7160644531" type="qcurve" smooth="yes"/>
			<point x="573.8995774394" y="982.7160644531"/>
			<point x="666.6598313457" y="962.7160644531"/>
			<point x="688.4449265605" y="946.7160644531" type="qcurve"/>
			<point x="676.6473801738" y="1001.7160644531" type="line"/>
			<point x="815.6473801738" y="1001.7160644531" type="line"/>
			<point x="881.6473801738" y="800.7160644531" type="line"/>
			<point x="808.0756028301" y="506" type="line"/>
			<point x="609.5160935527" y="-337.0869140625" type="line"/>
			<point x="756.036113084" y="-377.0869140625" type="line"/>
			<point x="726.0770676738" y="-452.0864257812" type="line"/>
			<point x="539.6573899394" y="-486.0864257812" type="line"/>
			<point x="448.6573899394" y="-390.0864257812" type="line"/>
			<point x="579.6559250957" y="140" type="line"/>
			<point x="568.6559250957" y="143" type="line"/>
			<point x="474.8714402324" y="66"/>
			<point x="277.1713256836" y="-10"/>
			<point x="250.505859375" y="-10" type="qcurve" smooth="yes"/>
			<point x="140.5080566406" y="-10"/>
			<point x="-4.775390625" y="149"/>
		</contour>
		<contour>
			<point x="147.7539672852" y="315" type="qcurve" smooth="yes"/>
			<point x="147.7539672852" y="254"/>
			<point x="200.8739426738" y="171.3963623047"/>
			<point x="266.4776414043" y="171.3963623047" type="qcurve" smooth="yes"/>
			<point x="377.6850388652" y="171.3963623047"/>
			<point x="619.5094407207" y="369"/>
			<point x="654.0796311504" y="526" type="qcurve" smooth="yes"/>
			<point x="726.8400071269" y="820.0930175781" type="line"/>
			<point x="720.1663010723" y="853.5269775391"/>
			<point x="653.7775071269" y="890.0930175781"/>
			<point x="603.2980149394" y="890.0930175781" type="qcurve" smooth="yes"/>
			<point x="412.6520188457" y="890.0930175781"/>
			<point x="147.7539672852" y="478.2865600586"/>
		</contour>
	</outline>
	<anchor name="bottom" x="594" y="0"/>
	<anchor name="top" x="594" y="1000"/>
</glyph>
<glyph name="r" format="2">
	<unicode hex="0072"/>
	<advance width="942"/>
	<outline>
		<contour>
			<point x="75.9093017578" y="-18.345703125" type="line"/>
			<point x="30.7364501953" y="103.345703125" type="line"/>
			<point x="144.2130126953" y="554" type="line"/>
			<point x="176.5339355469" y="785.5962524414" type="line"/>
			<point x="45.1768188477" y="785.9419555664" type="line"/>
			<point x="44.7667236328" y="888.9414672852" type="line"/>
			<point x="111.8911132812" y="993.5957641602" type="line"/>
			<point x="289.8911132812" y="993.5957641602" type="line"/>
			<point x="320.0639648438" y="800.2871704102" type="line"/>
			<point x="330.4145507812" y="702.6055297852" type="line"/>
			<point x="219.2901611328" y="132.2143554688" type="line"/>
			<point x="365.1221923828" y="90.9575195312" type="line"/>
			<point x="370.3422851562" y="12.6123046875" type="line"/>
		</contour>
		<contour>
			<point x="629.6685475673" y="580.1787109375" type="line"/>
			<point x="635.2550395372" y="827.7630840041" type="line"/>
			<point x="535.2648051622" y="827.7630840041"/>
			<point x="314.2529958762" y="722.565059103"/>
			<point x="224.9961599387" y="657.8001933791" type="qcurve"/>
			<point x="205.0639648438" y="711.2871704102" type="line"/>
			<point x="326.2739257812" y="825.4180297852"/>
			<point x="619.9135742188" y="1007.5957641602"/>
			<point x="741.4370117188" y="1007.5957641602" type="qcurve" smooth="yes"/>
			<point x="827.0024414062" y="1007.5957641602"/>
			<point x="891.8295898438" y="952.6328735352"/>
			<point x="891.8295898438" y="885.6328735352" type="qcurve" smooth="yes"/>
			<point x="891.8295898438" y="751.6328735352"/>
			<point x="758.3950195312" y="580.1787109375"/>
			<point x="672.5678710938" y="580.1787109375" type="qcurve" smooth="yes"/>
		</contour>
	</outline>
	<anchor name="bottom" x="282" y="0"/>
	<anchor name="top" x="486" y="1000"/>
</glyph>
<glyph name="t" format="2">
	<unicode hex="0074"/>
	<advance width="647"/>
	<outline>
		<contour>
			<point x="118.3450927734" y="-15" type="line"/>
			<point x="44.3450927734" y="117" type="line"/>
			<point x="141.3450927734" y="512" type="line"/>
			<point x="199.857421875" y="837.47265625" type="line"/>
			<point x="38.857421875" y="849.47265625" type="line"/>
			<point x="42.6311035156" y="868.0014648438" type="line"/>
			<point x="214.6213378906" y="906.1743164062"/>
			<point x="362.5731201172" y="1190.7772827148"/>
			<point x="306.1942138672" y="1209.0014648438" type="qcurve"/>
			<point x="325.9309082031" y="1209.0014648438" type="line"/>
			<point x="376.9309082031" y="1132.0014648438" type="line"/>
			<point x="280.6820068359" y="524" type="line"/>
			<point x="210.3748168945" y="165.9995117188" type="line"/>
			<point x="378.0643920898" y="158.9995117188" type="line"/>
			<point x="372.684387207" y="65.2399902344" type="line"/>
		</contour>
		<contour>
			<point x="594.2913818359" y="856.47265625" type="line"/>
			<point x="627.6311035156" y="932.0014648438" type="line"/>
			<point x="589.9631347656" y="932.0014648438" type="line"/>
			<point x="601.6234130859" y="882.47265625" type="line"/>
		</contour>
	</outline>
	<anchor name="bottom" x="149" y="0"/>
	<anchor name="center" x="262" y="622"/>
	<anchor name="top" x="322" y="1179"/>
	<anchor name="topright" x="600" y="920"/>
</glyph>
<glyph name="u" format="2">
	<unicode hex="0075"/>
	<advance width="1204"/>
	<outline>
		<contour>
			<point x="731.4765625" y="-25" type="line"/>
			<point x="676.4765625" y="71" type="line"/>
			<point x="697.6025390625" y="335.9755859375" type="line"/>
			<point x="797.333984375" y="872.2871704102" type="line"/>
			<point x="768.333984375" y="985.2871704102" type="line"/>
			<point x="929.1937255859" y="1013.2871704102" type="line"/>
			<point x="969.1937255859" y="904.2871704102" type="line"/>
			<point x="864.3363037109" y="415" type="line"/>
			<point x="832.9662475586" y="134.9995117188" type="line"/>
			<point x="976.9662475586" y="134.9995117188" type="line"/>
			<point x="977.3363037109" y="41" type="line"/>
		</contour>
		<contour>
			<point x="61.7808837891" y="309" type="qcurve" smooth="yes"/>
			<point x="163.4284057617" y="793.2876586914" type="line"/>
			<point x="21.4284057617" y="789.2876586914" type="line"/>
			<point x="21.6383056641" y="891.2871704102" type="line"/>
			<point x="117.1083984375" y="1002.2871704102" type="line"/>
			<point x="275.1083984375" y="1002.2871704102" type="line"/>
			<point x="342.1083984375" y="877.2871704102" type="line"/>
			<point x="236.9302978516" y="317.3588867188" type="line" smooth="yes"/>
			<point x="220.4963378906" y="229.3588867188"/>
			<point x="283.4780273438" y="160.4908447266"/>
			<point x="360.1225585938" y="160.4908447266" type="qcurve" smooth="yes"/>
			<point x="449.7573242188" y="160.4908447266"/>
			<point x="648.1479492188" y="290.9849853516"/>
			<point x="719.5776367188" y="329.7847900391" type="qcurve"/>
			<point x="744.3970336914" y="286.5955810547" type="line"/>
			<point x="724.2481689453" y="213.9313964844"/>
			<point x="372.692199707" y="-17"/>
			<point x="272.0060424805" y="-17" type="qcurve" smooth="yes"/>
			<point x="183.6986694336" y="-17"/>
			<point x="30.9927368164" y="164"/>
		</contour>
	</outline>
	<anchor name="bottom" x="404" y="0"/>
	<anchor name="ogonek" x="871" y="20"/>
	<anchor name="top" x="572" y="1000"/>
	<anchor name="topright" x="915" y="1000"/>
	<anchor name="cy_descender" x="1018" y="134"/>
</glyph>
<glyph name="v" format="2">
	<unicode hex="0076"/>
	<advance width="984"/>
	<outline>
		<contour>
			<point x="232.5451660156" y="-5.4661254883" type="line"/>
			<point x="164.5827026367" y="508.9235229492" type="line"/>
			<point x="118.1063842773" y="822.2876586914" type="line"/>
			<point x="-25.1935424805" y="819.2876586914" type="line"/>
			<point x="-24.1435546875" y="913.2871704102" type="line"/>
			<point x="187.9996337891" y="1003.2871704102" type="line"/>
			<point x="267.9205322266" y="1003.2871704102" type="line"/>
			<point x="335.5335083008" y="460.8952636719" type="line"/>
			<point x="357.5101318359" y="265.8916015625" type="line"/>
			<point x="363.0755615234" y="154.2974243164" type="line"/>
			<point x="373.0755615234" y="154.2974243164" type="line"/>
			<point x="458.122253418" y="263.5629272461" type="line"/>
			<point x="635.3177490234" y="481.1498413086"/>
			<point x="696.0777587891" y="618.9888305664"/>
			<point x="696.0777587891" y="685.8851318359" type="qcurve" smooth="yes"/>
			<point x="696.0777587891" y="777.9532470703"/>
			<point x="591.4391479492" y="879.5094604492"/>
			<point x="591.4391479492" y="930.2294921875" type="qcurve" smooth="yes"/>
			<point x="591.4391479492" y="963.1209716797"/>
			<point x="658.6232910156" y="1035.5099487305"/>
			<point x="710.0732421875" y="1035.5099487305" type="qcurve" smooth="yes"/>
			<point x="742.4249267578" y="1035.5099487305"/>
			<point x="832.7634277344" y="947.6993408203"/>
			<point x="832.7634277344" y="807.8029174805" type="qcurve" smooth="yes"/>
			<point x="832.7634277344" y="690.2336425781"/>
			<point x="576.61328125" y="271.8134765625"/>
			<point x="369.1978149414" y="6.5338745117" type="qcurve"/>
		</contour>
	</outline>
	<anchor name="bottom" x="513" y="0"/>
	<anchor name="top" x="513" y="1000"/>
</glyph>
<glyph name="w" format="2">
	<unicode hex="0077"/>
	<advance width="1481"/>
	<outline>
		<contour>
			<point x="206.884765625" y="-8" type="line"/>
			<point x="139.3833007812" y="487.0440063477" type="line"/>
			<point x="94.1073608398" y="822.2876586914" type="line"/>
			<point x="-42.7324829102" y="819.2876586914" type="line"/>
			<point x="-48.142578125" y="913.2871704102" type="line"/>
			<point x="40.4362182617" y="1003.2871704102" type="line"/>
			<point x="241.4362182617" y="1003.2871704102" type="line"/>
			<point x="293.6800537109" y="513.3128051758" type="line"/>
			<point x="324.2105712891" y="263.8649291992" type="line"/>
			<point x="329.1306762695" y="163.2900390625" type="line"/>
			<point x="339.1306762695" y="163.2900390625" type="line"/>
			<point x="394.6585083008" y="267.8126831055" type="line"/>
			<point x="468.6199951172" y="375.6907958984"/>
			<point x="549.2583618164" y="496.5270996094"/>
			<point x="603.0842285156" y="580.9983520508" type="qcurve"/>
			<point x="555.7208251953" y="823.8639526367" type="line"/>
			<point x="469.9531860352" y="820.6605224609" type="line"/>
			<point x="464.6109008789" y="914.8634643555" type="line"/>
			<point x="508.8140258789" y="1003.2871704102" type="line"/>
			<point x="709.0258789062" y="1003.2871704102" type="line"/>
			<point x="780.7587890625" y="483.8558349609" type="line"/>
			<point x="811.8375244141" y="256.6148071289" type="line"/>
			<point x="820.2175292969" y="157.4057617188" type="line"/>
			<point x="830.2175292969" y="157.4057617188" type="line"/>
			<point x="899.0930786133" y="263.3587646484" type="line"/>
			<point x="1074.5057983398" y="488.8608398438"/>
			<point x="1171.4081420898" y="634.0215454102"/>
			<point x="1157.5214233398" y="702.4187011719" type="qcurve" smooth="yes"/>
			<point x="1145.8045043945" y="771.1614990234"/>
			<point x="985.1823730469" y="880.5269775391"/>
			<point x="983.6060791016" y="937.1182250977" type="qcurve" smooth="yes"/>
			<point x="982.0297851562" y="978.9908447266"/>
			<point x="1052.6312866211" y="1045.2871704102"/>
			<point x="1100.4698486328" y="1045.2871704102" type="qcurve" smooth="yes"/>
			<point x="1162.3259887695" y="1003.5118408203"/>
			<point x="1297.1314086914" y="922.7108764648"/>
			<point x="1297.1314086914" y="794.1345825195" type="qcurve" smooth="yes"/>
			<point x="1297.1314086914" y="657.9227294922"/>
			<point x="979.9706420898" y="305.5001220703"/>
			<point x="804.3278808594" y="4" type="qcurve"/>
			<point x="687.6404418945" y="-8" type="line"/>
			<point x="634.5240478516" y="374.4209594727" type="line"/>
			<point x="630.6751708984" y="475.3896484375" type="line"/>
			<point x="620.6751708984" y="475.3896484375" type="line"/>
			<point x="561.1126098633" y="368.3083496094" type="line"/>
			<point x="522.1079711914" y="307.3593139648"/>
			<point x="405.4714355469" y="147.9490356445"/>
			<point x="305.466796875" y="4" type="qcurve"/>
		</contour>
	</outline>
	<anchor name="bottom" x="787" y="0"/>
	<anchor name="top" x="717" y="1000"/>
</glyph>
<glyph name="x" format="2">
	<unicode hex="0078"/>
	<advance width="992"/>
	<outline>
		<contour>
			<point x="101.5010375977" y="-9.7328491211" type="qcurve"/>
			<point x="-103.0529174805" y="49.2671508789" type="line"/>
			<point x="-89.0529174805" y="180.2671508789" type="line"/>
			<point x="102.5010375977" y="178.2671508789" type="line" smooth="yes"/>
			<point x="144.3582763672" y="176.3456420898"/>
			<point x="290.9127197266" y="254.4854125977"/>
			<point x="360.3228759766" y="297.7147827148" type="qcurve" smooth="yes"/>
			<point x="397.9425048828" y="312.9619750977"/>
			<point x="424.8465576172" y="322.16015625"/>
			<point x="442.461730957" y="320.7395019531" type="qcurve"/>
			<point x="241.7495727539" y="839.4305419922" type="line"/>
			<point x="74.5498657227" y="820.0905761719" type="line"/>
			<point x="68.5697631836" y="922.4300537109" type="line"/>
			<point x="226.9036254883" y="1016.4300537109" type="line"/>
			<point x="363.9036254883" y="976.4300537109" type="line"/>
			<point x="421.0822143555" y="767.6315307617" type="line"/>
			<point x="435.4620361328" y="698.6796875" type="line"/>
			<point x="445.4620361328" y="698.6796875" type="line"/>
			<point x="510.331237793" y="761.1337890625" type="line" smooth="yes"/>
			<point x="543.0523681641" y="792.274597168"/>
			<point x="609.4428100586" y="861.9112548828"/>
			<point x="645.1436767578" y="887.6530761719" type="qcurve" smooth="yes"/>
			<point x="720.0579833984" y="938.9525146484"/>
			<point x="816.9733886719" y="1012.162902832"/>
			<point x="851.0904541016" y="1012.162902832" type="qcurve" smooth="yes"/>
			<point x="872.8531494141" y="1012.162902832"/>
			<point x="905.950378418" y="954.9703369141"/>
			<point x="905.950378418" y="899.9703369141" type="qcurve" smooth="yes"/>
			<point x="905.950378418" y="837.9703369141"/>
			<point x="831.1429443359" y="732.162902832"/>
			<point x="806.1429443359" y="720.162902832" type="qcurve"/>
			<point x="769.1429443359" y="732.162902832" type="line"/>
			<point x="769.1429443359" y="757.548034668" type="line" smooth="yes"/>
			<point x="769.1429443359" y="774.548034668"/>
			<point x="753.9310913086" y="792.162902832"/>
			<point x="732.8571777344" y="792.162902832" type="qcurve" smooth="yes"/>
			<point x="683.6149291992" y="792.162902832"/>
			<point x="559.6850585938" y="732.4175415039"/>
			<point x="512.989074707" y="699.9579467773" type="qcurve" smooth="yes"/>
			<point x="470.1502075195" y="671.2560424805"/>
			<point x="441.6438598633" y="659.9354858398"/>
			<point x="416.6990966797" y="647.4566650391" type="qcurve"/>
			<point x="617.7594604492" y="134.9995117188" type="line"/>
			<point x="743.9091796875" y="134.9995117188" type="line"/>
			<point x="751.3192749023" y="49" type="line"/>
			<point x="621.9854125977" y="-11" type="line"/>
			<point x="488.9854125977" y="28" type="line"/>
			<point x="435.8919067383" y="210.4982910156" type="line"/>
			<point x="420.9966430664" y="278.3569946289" type="line"/>
			<point x="410.9966430664" y="278.3569946289" type="line"/>
			<point x="375.4248657227" y="248.3260498047" type="line"/>
			<point x="355.442199707" y="233.1658935547"/>
			<point x="316.9577026367" y="188.4271850586"/>
			<point x="288.0553588867" y="165.0933837891" type="qcurve" smooth="yes"/>
			<point x="201.858581543" y="96.3359375"/>
			<point x="105.3934936523" y="-6.6951293945"/>
		</contour>
	</outline>
	<anchor name="bottom" x="522" y="0"/>
	<anchor name="top" x="522" y="1000"/>
	<anchor name="cy_descender" x="832" y="134"/>
	<anchor name="center" x="432" y="502"/>
</glyph>
<glyph name="y" format="2">
	<unicode hex="0079"/>
	<advance width="999"/>
	<outline>
		<contour>
			<point x="-404.8192749023" y="-419.4267578125" type="line"/>
			<point x="-363.8192749023" y="-285.4267578125" type="line"/>
			<point x="-185.3396606445" y="-285.4267578125" type="line" smooth="yes"/>
			<point x="-34.5559692383" y="-285.4267578125"/>
			<point x="202.3060913086" y="-147.4307250977"/>
			<point x="299.4370727539" y="-16" type="qcurve" smooth="yes"/>
			<point x="322.0933227539" y="14" type="line"/>
			<point x="218.0892333984" y="14" type="line"/>
			<point x="226.7588500977" y="79"/>
			<point x="151.3148803711" y="625.2876586914"/>
			<point x="114.0163574219" y="823.2876586914" type="qcurve"/>
			<point x="-25.1935424805" y="818.2876586914" type="line"/>
			<point x="-23.1435546875" y="913.2871704102" type="line"/>
			<point x="186.4531860352" y="1002.2871704102" type="line"/>
			<point x="257.5464477539" y="1002.2871704102" type="line"/>
			<point x="286.3605957031" y="888.2871704102" type="line"/>
			<point x="352.4425048828" y="152.8811035156" type="line"/>
			<point x="352.0629882812" y="71.6899414062" type="line"/>
			<point x="362.0629882812" y="71.6899414062" type="line"/>
			<point x="421.4976196289" y="152.9168701172" type="line" smooth="yes"/>
			<point x="532.4517822266" y="311.0632324219"/>
			<point x="697.7431640625" y="629.0982055664"/>
			<point x="672.5734863281" y="744.1294555664" type="qcurve" smooth="yes"/>
			<point x="657.3848876953" y="827.4481811523"/>
			<point x="608.2736816406" y="898.1051025391"/>
			<point x="608.2736816406" y="922.8162841797" type="qcurve" smooth="yes"/>
			<point x="608.2736816406" y="966.2651977539"/>
			<point x="670.9937133789" y="1019.1630249023"/>
			<point x="714.1033935547" y="1019.1630249023" type="qcurve" smooth="yes"/>
			<point x="777.7641601562" y="1019.1630249023"/>
			<point x="849.7461547852" y="913.1378173828"/>
			<point x="849.7461547852" y="839.7318115234" type="qcurve" smooth="yes"/>
			<point x="849.7461547852" y="718.4354858398"/>
			<point x="533.8474121094" y="168.5947875977"/>
			<point x="431.0551147461" y="-2" type="qcurve" smooth="yes"/>
			<point x="399.0123291016" y="-45" type="line" smooth="yes"/>
			<point x="272.735168457" y="-217.7338867188"/>
			<point x="17.1705322266" y="-480.4267578125"/>
			<point x="-175.3396606445" y="-480.4267578125" type="qcurve"/>
		</contour>
	</outline>
	<anchor name="bottom" x="782" y="0"/>
	<anchor name="top" x="504" y="1000"/>
</glyph>
<glyph name="z" format="2">
	<unicode hex="007A"/>
	<advance width="905"/>
	<outline>
		<contour>
			<point x="-18.1333618164" y="13.6225585938" type="line"/>
			<point x="-78.0030517578" y="85" type="line"/>
			<point x="36.6219482422" y="217.2858276367"/>
			<point x="202.5930786133" y="405.7147827148"/>
			<point x="338.0722045898" y="557.7741699219" type="qcurve" smooth="yes"/>
			<point x="382.1000366211" y="609.9954223633"/>
			<point x="521.4965209961" y="747.4297485352"/>
			<point x="605.0979614258" y="823.0014648438" type="qcurve"/>
			<point x="188.4742431641" y="809.0014648438" type="line"/>
			<point x="124.3677978516" y="682.0024414062" type="line"/>
			<point x="32.454284668" y="682.0024414062" type="line"/>
			<point x="105.5607299805" y="952.0014648438" type="line"/>
			<point x="180.5607299805" y="1002.0014648438" type="line"/>
			<point x="725.793762207" y="1002.0014648438" type="line"/>
			<point x="776.5296020508" y="879.0014648438" type="line"/>
			<point x="701.450012207" y="776.4297485352"/>
			<point x="574.6419677734" y="638.2918701172"/>
			<point x="484.6791381836" y="535.0006103516" type="qcurve" smooth="yes"/>
			<point x="403.4064941406" y="442.4290771484"/>
			<point x="274.606628418" y="316.7143554688"/>
			<point x="194.6885986328" y="252" type="qcurve"/>
			<point x="588.2267456055" y="188.8543701172" type="line"/>
			<point x="689.253112793" y="342.5867919922" type="line"/>
			<point x="782.1666259766" y="330.3052368164" type="line"/>
			<point x="671.1402587891" y="26.5728149414" type="line"/>
			<point x="593.1402587891" y="-17.4271850586" type="line"/>
			<point x="21.8980102539" y="46.6604003906" type="line"/>
		</contour>
	</outline>
	<anchor name="bottom" x="443" y="0"/>
	<anchor name="top" x="463" y="1000"/>
	<anchor name="_liga" x="0" y="0"/>
</glyph>
<glyph name="idotless" format="2">
	<unicode hex="0131"/>
	<advance width="635"/>
	<outline>
		<contour>
			<point x="93.7358398438" y="-18" type="line"/>
			<point x="42.7358398438" y="118" type="line"/>
			<point x="134.4501953125" y="492.7147216797" type="line"/>
			<point x="197.0033569336" y="797.4305419922" type="line"/>
			<point x="36.193359375" y="795.4305419922" type="line"/>
			<point x="30.5932617188" y="904.4300537109" type="line"/>
			<point x="175.9700317383" y="1001.4300537109" type="line"/>
			<point x="335.9700317383" y="1001.4300537109" type="line"/>
			<point x="376.9700317383" y="885.4300537109" type="line"/>
			<point x="347.9700317383" y="786.4300537109" type="line"/>
			<point x="298.826965332" y="535.7147216797" type="line"/>
			<point x="224.0825195312" y="150.9995117188" type="line"/>
			<point x="436.8925170898" y="151.9995117188" type="line"/>
			<point x="435.1126098633" y="63" type="line"/>
		</contour>
	</outline>
	<anchor name="bottom" x="180" y="0"/>
	<anchor name="top" x="320" y="1000"/>
	<anchor name="ogonek" x="180" y="0"/>
	<anchor name="yu_dash" x="239" y="498"/>
	<anchor name="liga" x="618" y="0"/>
</glyph>
